<svg xmlns="http://www.w3.org/2000/svg" xmlns:xlink="http://www.w3.org/1999/xlink" viewBox="0 0 750 500" xmlns:v="https://vecta.io/nano"><style><![CDATA[.B{fill:#263238}.C{fill:#455a64}.D{fill:#ffc727}.E{fill:#fafafa}.F{fill:#b78876}.G{fill:#aa6550}.H{fill:#e0e0e0}]]></style><path d="M710 444.08c0 .15-150 .26-334.94.26s-335-.11-335-.26 149.94-.26 335-.26l334.94.26z" class="B"/><path d="M324.16 444.08l-132.92-.61a29 29 0 0 1-28.82-29.08l1.41-333.23a29 29 0 0 1 29.09-28.83l132.92.61A29 29 0 0 1 354.66 82l-1.41 333.23a29 29 0 0 1-29.09 28.85z" class="C"/><path d="M325.65 64.44l-25.77-.12a6.41 6.41 0 0 0-6.29 6.51v4.68a6.39 6.39 0 0 1-6.3 6.49l-50.24-.23a6.42 6.42 0 0 1-6.23-6.57v-4.68a6.41 6.41 0 0 0-6.21-6.52h-9.06L193 63.83A20.28 20.28 0 0 0 172.62 84l-1.37 325.26a20.28 20.28 0 0 0 20.18 20.37l132.66.61a20.28 20.28 0 0 0 20.37-20.19l1.37-325.25a20.27 20.27 0 0 0-20.18-20.36z" class="E"/><path d="M172.46 123.05h21.74l19.4 19.41-20.17 20.17-20.74-20.75-.23-18.83zm45.57 10.89l-10.9-10.89h24.52l-13.62 10.89zm9.53 8.9l19.09-19.09h66.7s10.21 45.6-30 74.88zm-8.17 6.08l-20.42 20.43 56.51 56.51 20.42-21.11-56.51-55.83zm-47.18 32.01l12.8-13.28-12.55-12.55-.25 25.83zm20.46-5.45l-19.66 19.66v27.32l40.59 41.53 34.39-32-55.32-56.51zM291 204.36s42.12-30.88 28.5-80.61h26.19l-.32 140.36zm-7.92 8.1l-20.36 21.26 62.44 62.45 19.1-20.24-61.18-63.47zm-28.87 27.08l-32.01 31.78 64.02 63.57L318.17 304l-63.96-64.46zm-16.78 159.23l48.94-50.72 46.55 47.45-95.49 3.27zM294 341.5l51-50.5-.44 104.71zm-43.63-28.36l28.91 28.91-57.08 58.9-26.37-31.63 54.54-56.18zm-78.11 60.28c2.73-.27 72.64-65.74 72.64-65.74l-72.64-75.27zm-1.01 14.92l16.83-14.92 23.31 27.53h-40.14v-10.53" fill="#ebebeb"/><path d="M193 103.23a41.85 41.85 0 0 1-5-4.34h0v-.38h0 0l.07-.06.12-.11.25-.23.48-.45.91-.84 1.57-1.4a7.66 7.66 0 0 1 1.6-1.25 7 7 0 0 1-1.28 1.46l-1.5 1.48-.89.86-.48.46-.24.23-.13.11-.06.06h0 0v-.38h0a42.46 42.46 0 0 1 4.58 4.78zm138.25-7.63a1.09 1.09 0 1 1-1.08-1.08 1.08 1.08 0 0 1 1.08 1.08zm-.31 2.97a1.09 1.09 0 1 1-1.54 0 1.1 1.1 0 0 1 1.54 0zm.31 4.5a1.09 1.09 0 0 1-2.17 0 1.09 1.09 0 1 1 2.17 0zm-93.64-3.04h46.78v3.9h-46.78z" class="B"/><path d="M279.3 170c0-18.22-19.14-29.76-38.66-20.63a22.16 22.16 0 0 0-10.28 9.85c-4.91 9.51-2.74 20.37 1.71 29.39l15.2 38.51a6.55 6.55 0 0 0 12.2 0l14.89-38.71c5.16-11.8 4.94-18.41 4.94-18.41zM261 185.9c-13.12 7.63-26.42-6.47-19.23-20.39a11 11 0 0 1 4.17-4.42c13.13-7.63 26.43 6.47 19.23 20.39a10.91 10.91 0 0 1-4.17 4.42zM122.25 309.12h554.82v81.41H122.25z" class="D"/><path d="M122.25 309.12h554.82v81.41H122.25z" opacity=".5"/><g class="B"><circle cx="196.8" cy="389.98" r="53.5" transform="matrix(.997743 -.067145 .067145 .997743 -25.73 14.09)"/><path d="M143.32 389.07v.14a53.5 53.5 0 1 0 107 1.55v-.14z"/></g><path d="M159.25 389.44a37.56 37.56 0 1 0 38.09-37 37.56 37.56 0 0 0-38.09 37z" class="E"/><path d="M197.34 352.43a37.55 37.55 0 0 0-38.09 37l75.11 1.09a37.56 37.56 0 0 0-37.02-38.09z" class="H"/><g class="B"><path d="M173.93 389.65a22.88 22.88 0 1 0 23.2-22.54 22.87 22.87 0 0 0-23.2 22.54z"/><circle cx="605.9" cy="389.98" r="53.5" transform="matrix(.998322 -.057913 .057913 .998322 -21.54 35.69)"/><path d="M552.42 389.07v.14a53.5 53.5 0 1 0 107 1.55v-.14z"/></g><path d="M568.35 389.44a37.56 37.56 0 1 0 38.09-37 37.56 37.56 0 0 0-38.09 37z" class="E"/><path d="M606.44 352.43a37.55 37.55 0 0 0-38.09 37l75.11 1.09a37.56 37.56 0 0 0-37.02-38.09z" class="H"/><path d="M583,389.65a22.88,22.88,0,1,0,23.2-22.54A22.87,22.87,0,0,0,583,389.65Z" class="B"/><path d="M266.93 263.32s-78.78 5.81-108 12.36c-20.58 4.61-60.26 12.58-59.78 37.54l3.15 17.9S87.59 337.84 87.59 355s-3.59 43.76 30.77 44.83c5.66.17 16.41 0 16.41 0s-6.59-73.18 60.63-75.32c68.39-2.18 63.85 74.65 63.85 74.65h285.43s-11.72-74.85 61.9-75S669 399.65 669 399.65s27.08 2.34 39.68-20.42 9.33-39 9.33-39l-.42-14.39a9.32 9.32 0 0 0-9-9h0s4.92-36.22-2.63-42.49-48.92-44.1-48.92-44.1l2-1.23a4.64 4.64 0 0 0-1-8.32l-54.07-18.64a13.14 13.14 0 0 0-3.39-.72c-4.36-.33-16.7-1.11-39.35-1.35-27.59-.3-137.13 0-137.13 0s-37.7 3.1-58.7 12.34c-22.02 9.72-98.47 50.99-98.47 50.99z" class="D"/><path d="M107.57,353c-2.86-.58-7.24-.63-9.42,1.3-1.62,1.44-2.05,3.77-2.29,5.92a25.16,25.16,0,0,0,.2,8.87,10.82,10.82,0,0,0,5,7.07c2.62,1.42,6.2,1.19,8.23-1,1.86-2,2.07-5,2-7.67-.07-3.86.24-7.13-.47-10.92a5.26,5.26,0,0,0-1-2.21,3,3,0,0,0-2.28-1.37" opacity=".4"/><path d="M102.32,331.12c8.36,0,16.47-.46,24.82-1a4,4,0,0,0,2.54-.77,4.06,4.06,0,0,0,.87-3c0-4.48-.18-9.58-3.58-12.5-2.08-1.78-4.93-2.34-7.66-2.59a49.33,49.33,0,0,0-20.14,2Z" class="E"/><path d="M276 396.87s0-.24-.06-.72-.08-1.19-.14-2.1l-.44-8.07c-.19-3.5-.43-7.79-.93-12.75a100.8 100.8 0 0 0-2.95-16.63 75.75 75.75 0 0 0-8.05-18.75 59 59 0 0 0-15.57-17.36c-13.49-9.6-31.72-15-50.79-15.26s-37.31 5.77-50.47 15.88a74 74 0 0 0-16.37 16.71 78.66 78.66 0 0 0-9.58 18 72.89 72.89 0 0 0-4.05 16.37 68.63 68.63 0 0 0-.49 12.73 63.7 63.7 0 0 0 1 8l.37 2.06.11.71s-.06-.23-.16-.69l-.43-2a58.35 58.35 0 0 1-1.08-8 67.41 67.41 0 0 1 .4-12.78 72.9 72.9 0 0 1 4-16.46 79 79 0 0 1 9.58-18.15 74 74 0 0 1 16.44-16.84c13.22-10.16 31.5-16.25 50.72-16s37.48 5.7 51.08 15.39a59.4 59.4 0 0 1 15.65 17.52 75.52 75.52 0 0 1 8 18.89 99.05 99.05 0 0 1 2.89 16.7c.47 5 .68 9.26.84 12.76l.35 8.08c0 .91.06 1.61.08 2.1a5.92 5.92 0 0 0 .05.66z" fill="#fff"/><g class="B"><path d="M279 398.11v-.6l-.06-1.77-.22-6.91-.74-26.23-1.12-40.7-.33-12.15a41.24 41.24 0 0 1 .28-6.35l.45-3.22.66-3.23a65.4 65.4 0 0 1 4.45-12.81 64.52 64.52 0 0 1 7.3-12.14h0 0l49.43-31.14 13.35-8.4a104.88 104.88 0 0 1 14.13-7.89 145.22 145.22 0 0 1 15.42-6.21l8-2.47s5.43-1.46 8.21-2a187.26 187.26 0 0 1 31.85-4 301.85 301.85 0 0 1 30.85.1h.29l-.07.29-13.28 59.41h0 0a65.6 65.6 0 0 0-6 12.77 34.86 34.86 0 0 0-2 13.2c.34 4.39.46 8.69.57 12.86l.24 12.14.33 40.67v26.21 6.91 1.77.6-.6-1.77-6.91l-.16-26.2-.44-40.68q-.12-5.88-.26-12.13c-.12-4.17-.24-8.45-.59-12.84a35.22 35.22 0 0 1 2-13.37 65.08 65.08 0 0 1 6-12.87v.07l13.23-59.42.23.3a300.56 300.56 0 0 0-30.78-.08 185.2 185.2 0 0 0-31.77 4c-2.77.55-5.47 1.32-8.18 2s-5.36 1.55-8 2.46a145 145 0 0 0-15.42 6.22 104.27 104.27 0 0 0-14.06 7.84l-13.36 8.4L290 272.31v-.05a63.63 63.63 0 0 0-7.28 12.07 64.35 64.35 0 0 0-4.44 12.72c-2.25 8.57-1.12 17-1.1 24.85l1 40.7.62 26.22.15 6.92q0 1.15 0 1.77a5.45 5.45 0 0 1 .05.6z"/><path d="M460.55 211.64h.47l1.37-.05 5.31-.13 19.69-.38 66.38-1.14h.13l.08.1 9.3 11.39L589.84 254l3 3.7a21.93 21.93 0 0 1 2.49 4 20.79 20.79 0 0 1 .37 16.88l-3 7-9.18 21.24-2.52 5.76-.67 1.5-.24.5s.06-.18.19-.52.36-.87.62-1.52l2.43-5.8 9-21.3c1.72-4.52 4.75-9.28 4.54-15.08a20.42 20.42 0 0 0-2-8.51 21.25 21.25 0 0 0-2.44-3.89l-3-3.7-26.59-32.54-9.29-11.39.2.1-66.39 1-19.69.23h-5.31H461z"/><use xlink:href="#B"/><use xlink:href="#B" x="148"/></g><path d="M704.69 275.78h-29.6a10.93 10.93 0 0 0-9.67 5.83h0a10.94 10.94 0 0 0-.32 9.49l11.6 26.37 29.64-.29s6.31-33.43-1.65-41.4z" class="E"/><path d="M293.6 272.05l152.73-2.82 99.4-1.82 32.78-18.93A5.09 5.09 0 0 0 580 241l-20.41-26.81a11.34 11.34 0 0 0-8.94-4.48l-111.18-.9s-41.86-2.44-74.85 16c-34.69 19.47-71.02 47.24-71.02 47.24z" class="B"/><path d="M363.59 211.58s7.66 3.49 2.68 6.72l-82.36 52-17.79-8.05c31.51-17.53 63.33-34.58 97.47-50.67z" class="C"/><path d="M286.41 271.54l-.48.12-1.41.31-5.43 1.12-20 3.72c-17 2.92-40.52 6.32-66.69 8.58l-19.12 1.44-17.8 1.3c-11.33 1-21.47 2.64-29.71 5.09A83.67 83.67 0 0 0 107 301c-2.13 1.12-3.65 2.22-4.72 2.88l-1.22.77-.43.25a4.84 4.84 0 0 1 .4-.29l1.19-.82c1.06-.69 2.56-1.82 4.68-3a81.59 81.59 0 0 1 18.72-8c8.26-2.51 18.43-4.2 29.77-5.21 5.67-.54 11.63-.92 17.81-1.33l19.11-1.46a867.78 867.78 0 0 0 66.68-8.43l20.06-3.55 5.45-1 1.42-.26zm430.11 68.39c0 .15-10.18.26-22.73.26s-22.74-.11-22.74-.26 10.18-.26 22.74-.26l22.73.26zm-186.23 25.98c0 .15-57.46.26-128.33.26s-128.34-.11-128.34-.26 57.45-.26 128.34-.26l128.33.26zM128 340.79c0 .15-8.13.26-18.15.26s-18.15-.11-18.15-.26 8.13-.26 18.15-.26l18.15.26z" class="B"/><path d="M656.27 229.21s-6.82 7.63-4.14 13.23 30.39 25.22 30.39 25.22l20.11 3.77zm-191.2-13.67l-4.52 48.84 80.92-2.31 32.61-18.96-21.11-27.57h-87.9zm-152.31 51.34s48.82-35.26 68.08-42.27c18.59-6.76 28.28-8.46 45.74-9 16.69-.48 26.86 0 26.86 0l-12.9 49.65z" class="C"/><path d="M305.62 267h0a8.57 8.57 0 0 1 4.36-7.46l11.22-6.3a21.31 21.31 0 0 1 10.47-2.74h0a21.57 21.57 0 0 1 6.65 1.06 12.16 12.16 0 0 1 8.18 11.17h0a12.35 12.35 0 0 1-12.35 12.82h-20a8.55 8.55 0 0 1-8.53-8.55z" class="D"/><path d="M305.62 267s0 .38.13 1.08a8.49 8.49 0 0 0 1 2.93 8.8 8.8 0 0 0 3.44 3.39 8.46 8.46 0 0 0 2.88.9 32.25 32.25 0 0 0 3.45.07l17.11-.06a12.83 12.83 0 0 0 4.76-.78 12.16 12.16 0 0 0 7.08-7 12.45 12.45 0 0 0 .75-5.29 12.11 12.11 0 0 0-5.05-8.95 12.88 12.88 0 0 0-4.63-2 21.23 21.23 0 0 0-13.62 1.31c-1.29.58-2.47 1.31-3.64 1.94l-3.34 1.86-5.75 3.18a8.61 8.61 0 0 0-3.44 3.39 8.77 8.77 0 0 0-1 2.93l-.12 1.08a5.39 5.39 0 0 1 0-1.1 8.27 8.27 0 0 1 .92-3 8.64 8.64 0 0 1 3.47-3.54l5.71-3.25 3.32-1.89 3.66-2a21.5 21.5 0 0 1 13.91-1.4 13.25 13.25 0 0 1 4.81 2 12.6 12.6 0 0 1 5.28 9.33 12.87 12.87 0 0 1-.78 5.52 12.64 12.64 0 0 1-7.4 7.3 13.44 13.44 0 0 1-4.93.79l-17.11-.05a33 33 0 0 1-3.49-.11 8.65 8.65 0 0 1-3-1 8.86 8.86 0 0 1-3.48-3.54 8.41 8.41 0 0 1-.91-3 6.54 6.54 0 0 1 .01-1.04z" class="B"/><path d="M681.74 397.32v-.69c0-.46.08-1.15.14-2l.22-3.3.15-4.51v-5.65c0-2.06-.15-4.31-.43-6.71a86.58 86.58 0 0 0-2.89-16.08 72.65 72.65 0 0 0-3.19-9 58.58 58.58 0 0 0-4.82-9.08 61.79 61.79 0 0 0-15.64-16.3 74 74 0 0 0-22.42-11.06c-8.34-2.55-17.42-3.48-26.66-3.55a87.83 87.83 0 0 0-26.6 3.87 74.88 74.88 0 0 0-11.84 4.89 67.92 67.92 0 0 0-10.28 6.72 85.26 85.26 0 0 0-15.84 16.24 62.5 62.5 0 0 0-5.26 8.84 85.89 85.89 0 0 0-3.64 8.79 104.91 104.91 0 0 0-5.78 28c-.16 3.39-.14 6-.05 7.82l.11 2c.02.45 0 .69 0 .69s0-.23-.08-.69-.1-1.15-.17-2a77.28 77.28 0 0 1 0-7.83 103.1 103.1 0 0 1 5.63-28.17 90.64 90.64 0 0 1 3.62-8.84 65.15 65.15 0 0 1 5.28-8.92 86.08 86.08 0 0 1 15.89-16.36 68.82 68.82 0 0 1 10.34-6.78 75.36 75.36 0 0 1 11.92-4.93 87.74 87.74 0 0 1 26.76-3.91c9.28.07 18.4 1 26.81 3.58a74.36 74.36 0 0 1 22.56 11.16 68.55 68.55 0 0 1 8.84 7.76 54.06 54.06 0 0 1 6.87 8.71 59 59 0 0 1 4.83 9.16 71.13 71.13 0 0 1 3.17 9 85.49 85.49 0 0 1 2.83 16.16c.27 2.4.27 4.65.38 6.72s0 4 0 5.66-.15 3.21-.21 4.52-.19 2.4-.27 3.3l-.18 2c-.04.45-.1.77-.1.77zM438.4 272.05h-.23-.68l-2.61.06-9.59.17-31.64.79-31.65.63h-9.6-2.61-.67a.64.64 0 0 1-.24 0 .75.75 0 0 1 .24 0h.67l2.61-.06 9.59-.17 31.65-.78 31.65-.64h9.59 2.61.68zm-13.26 15.03a72.38 72.38 0 0 1-8.76.26 72.38 72.38 0 0 1-8.76-.26 74.92 74.92 0 0 1 8.76-.26 74.92 74.92 0 0 1 8.76.26zm3.22-53.51c.05.13-10.82 4.66-24.29 10.11l-24.49 9.63c-.06-.14 10.82-4.66 24.29-10.11l24.49-9.63zM406.32 237c.06.14-10.3 4.7-23.13 10.19l-23.33 9.71c-.06-.13 10.3-4.69 23.13-10.19l23.33-9.71zm139.76-5.32c.06.13-10.82 4.66-24.29 10.11l-24.49 9.63c-.06-.13 10.82-4.66 24.3-10.11l24.48-9.63zM524 235.09c.06.14-10.3 4.7-23.12 10.19l-23.34 9.71c-.06-.13 10.3-4.69 23.13-10.19l23.33-9.71zM548.21 272c0 .14-21.63.39-48.31.55h-48.31c0-.17 21.62-.39 48.31-.54l48.31-.01zm23.95 14.25c0 .14-6.06.31-13.55.38s-13.55 0-13.55-.13 6.06-.32 13.55-.39 13.55-.01 13.55.14zM158 278.85a2.41 2.41 0 0 1-.59.12l-1.69.22-2.68.37-3.53.57-9.08 2a112.6 112.6 0 0 0-10.81 3.58c-3.76 1.49-7.25 3.12-10.37 4.73s-5.82 3.23-8 4.68c-1.13.69-2.11 1.39-3 2l-2.22 1.55-1.39 1a3.1 3.1 0 0 1-.51.32 2.89 2.89 0 0 1 .44-.4l1.34-1.07c.58-.46 1.3-1 2.17-1.63s1.82-1.33 3-2c2.2-1.49 4.92-3.12 8-4.79a97.9 97.9 0 0 1 21.28-8.35c3.4-.88 6.51-1.53 9.14-1.94 1.31-.24 2.5-.36 3.55-.5s2-.23 2.69-.28l1.71-.13a3.9 3.9 0 0 1 .55-.05zm178.58-23.59s-.29-.39-1-.93a6.66 6.66 0 0 0-3.3-1.33 14.25 14.25 0 0 0-5.34.57 41 41 0 0 0-16.53 8.51l-3.71 3.4a6.43 6.43 0 0 1 .84-1.06 35.27 35.27 0 0 1 2.62-2.62 38.35 38.35 0 0 1 10.28-6.56 37.1 37.1 0 0 1 6.39-2.13 14.17 14.17 0 0 1 5.5-.48 6.42 6.42 0 0 1 3.38 1.55 4.33 4.33 0 0 1 .67.76c.16.2.22.31.2.32z" fill="#fff"/><path d="M658.54 228.85a16 16 0 0 1-4.26.44 27 27 0 0 1-5-.62 45.62 45.62 0 0 1-6.37-2l-7.43-3.11-4.15-1.67-4.46-1.62a174.28 174.28 0 0 0-20.38-5.55 234.5 234.5 0 0 0-38.08-4.72l-6.64-.18h-5l-3.16.07h-1.11a.75.75 0 0 1 .28 0l.82-.06 3.17-.17 5-.09 6.64.12a220.6 220.6 0 0 1 38.18 4.6 167.06 167.06 0 0 1 20.41 5.56l4.47 1.64 4.15 1.71 7.4 3.16a43.83 43.83 0 0 0 6.29 2 26.47 26.47 0 0 0 4.94.7 22.77 22.77 0 0 0 3.15-.11l.81-.1z" class="B"/><path d="M177.41 230.23c-4-21.88-6.69-25.24-8.95-32.77s-5.85-12.42-10.32-14.15c-3-1.16-18.07-6.59-23.31-4.79a65.75 65.75 0 0 0-14.53 7.3 19.46 19.46 0 0 0-7.58 9.7l-8 22.57 14.08 14 7.06-15 7.66 18-1.13 18.15 43.93 11.82c3.96-6.4 3.36-22.42 1.09-34.83z" class="D"/><path d="M166 206.36l-4.19 24.35c-.67 3.91-2.62 10-5.4 12.84-2.06 2.09-4.08 4.1-6.95 4.78-2.66.63-6.71.7-9.21-.4s-4.64-6-3.61-8.51c3.73.8 4.88 2 8.09 0 2.8-1.78 6.78-5.72 8.3-8.67 6.41-12.4 8.18-12.84 13-24.39" opacity=".2"/><path d="M134.17 228.43a27.71 27.71 0 0 1-1.94-3l-4.52-7.43-4.64-7.31a26.79 26.79 0 0 1-1.87-3.08 3.82 3.82 0 0 1 .63.74l1.54 2.13 4.78 7.24 4.4 7.48 1.24 2.32a3.17 3.17 0 0 1 .38.91zm30.66 20.43a5 5 0 0 1-1 .39 11.34 11.34 0 0 1-1.25.34 14.46 14.46 0 0 1-1.68.35 26.57 26.57 0 0 1-4.44.41 31.21 31.21 0 0 1-5.45-.47 30.67 30.67 0 0 1-5.27-1.49 28.09 28.09 0 0 1-4-1.94c-.56-.31-1-.65-1.44-.92a11.6 11.6 0 0 1-1.05-.77 4.62 4.62 0 0 1-.83-.73c.06-.08 1.3.89 3.5 2.1a31.62 31.62 0 0 0 4 1.81 30.65 30.65 0 0 0 10.55 1.93 32.81 32.81 0 0 0 4.39-.29l3.97-.72z" class="B"/><path d="M147.2 214.77c-.08.39-4.8 9.79-4.8 9.79l-22.28-11.74-2.27-9.6a6 6 0 0 0-7.22-4.42l-6.57 2.69a1.76 1.76 0 0 0-1.08 1.27c-.09.48 0 1 .87.89 1.63-.13 5-.49 5-.49l-1.55 5.47a5.81 5.81 0 0 0 .44 4.29l1 1.89 2.17 3.51h-.05s21.66 22.25 33.82 23.7c7.31.87 15.59-19.62 15.59-19.62z" class="F"/><path d="M108.69 203.53s.17-.23.54-.48a2.9 2.9 0 0 1 1.69-.52 1.76 1.76 0 0 1 1.49 1c.21.45.07.75 0 .73s0-.28-.24-.62a1.73 1.73 0 0 0-1.31-.75 3.39 3.39 0 0 0-1.55.4c-.31.15-.59.28-.62.24zm2.81 3.41l-.36-.45a2.44 2.44 0 0 0-2.31-.91c-.34 0-.55.12-.57.08s.16-.19.52-.31a2.24 2.24 0 0 1 2.55 1c.18.34.2.58.17.59z" class="G"/><path d="M151.82 185.1l-6 28.59 16 9.61 6.14-17.57s-2.58-21.34-16.14-20.63z" class="D"/><path d="M160.44 185.6s-.13.11-.41.26l-1.21.64-4.57 2.17a67.39 67.39 0 0 1-15.89 5 39.79 39.79 0 0 1-16.62-.56 28.24 28.24 0 0 1-4.74-1.71c-.55-.23-1-.48-1.23-.62a2.84 2.84 0 0 1-.41-.25 16.76 16.76 0 0 1 1.72.69 34.79 34.79 0 0 0 4.78 1.54 41.24 41.24 0 0 0 16.44.4 72.84 72.84 0 0 0 15.84-4.83l4.62-2a13.81 13.81 0 0 1 1.68-.73zm4.21 3.16a2.37 2.37 0 0 1-.45.32l-1.32.85a24.17 24.17 0 0 1-2.16 1.26l-2.95 1.5-1.74.8-1.94.78c-1.33.55-2.81 1-4.35 1.5a60.29 60.29 0 0 1-20.85 2.47l-4.58-.45-2.07-.3-1.89-.38c-1.2-.21-2.27-.53-3.21-.77a24.09 24.09 0 0 1-2.39-.71l-1.49-.52a2.12 2.12 0 0 1-.51-.21 1.89 1.89 0 0 1 .54.11l1.52.42 2.4.63 3.22.69 1.88.34 2 .27c1.42.21 3 .29 4.55.4a62.11 62.11 0 0 0 20.7-2.45l4.33-1.45 1.93-.74 1.75-.77c1.13-.46 2.09-1 3-1.42s1.61-.83 2.19-1.17l1.38-.76a2.11 2.11 0 0 1 .51-.24z" fill="#ebebeb"/><path d="M161.78 223.3a10.41 10.41 0 0 1-1.3-.66l-3.52-2-12-6.93-.15-.09v-.17l1.37-6.79 2-10 .9-4.39a15.85 15.85 0 0 1 1.28-3.71 7.51 7.51 0 0 1 4.14-3.79 4.59 4.59 0 0 1 1.53-.25 1.48 1.48 0 0 1 .53.06 6.63 6.63 0 0 0-2 .38 7.46 7.46 0 0 0-3.88 3.76 16.12 16.12 0 0 0-1.19 3.65l-.85 4.37-2 10-1.38 6.79-.12-.26 11.93 7.09 3.45 2.1a9.06 9.06 0 0 1 1.26.84zm4.89-18.42a10.41 10.41 0 0 1-.08 2.67 40 40 0 0 1-1.14 6.33 41.71 41.71 0 0 1-2.12 6.08 10.34 10.34 0 0 1-1.25 2.36 19.06 19.06 0 0 1 .91-2.5 59.48 59.48 0 0 0 3.24-12.32 20.92 20.92 0 0 1 .44-2.62z" class="B"/><path d="M79.92,363.91l-.18,15.26s-15.58,4.95-15.88,7.77l29.58,1.4,1.26-23.77Z" class="C"/><path d="M89 378.32a1.21 1.21 0 0 1 .77 1.42 1.16 1.16 0 0 1-1.4.78 1.29 1.29 0 0 1-.81-1.51 1.21 1.21 0 0 1 1.55-.64m4.33 9.97v-2.4l-28.38-.45s-1.35.51-1.24 1.45z" class="H"/><path d="M79.27 379c0 .14.72.24 1.4.74s1 1.12 1.18 1.07 0-.89-.89-1.48-1.72-.47-1.69-.33zm-3.17 1.13c0 .14.58.42 1 1.05s.57 1.29.72 1.29.27-.81-.32-1.59-1.39-.88-1.4-.75zm-1.94 3.63c.13 0 .37-.67 0-1.48s-1-1.15-1.06-1 .33.56.59 1.23.31 1.23.47 1.25zm5.53-8.24c.06.14.73 0 1.55.06s1.43.39 1.51.27-.5-.67-1.46-.77-1.66.33-1.6.44z" class="B"/><path d="M79.89 366.93l-.04 2.72 14.55.56.13-2.45-14.64-.83z" opacity=".3"/><g class="B"><path d="M79.79 372.44a2.74 2.74 0 0 0 1.48.07 6.42 6.42 0 0 0 1.57-.41 5.69 5.69 0 0 0 .87-.41 1.78 1.78 0 0 0 .47-.32.63.63 0 0 0 .1-.77.81.81 0 0 0-.62-.36 2 2 0 0 0-.56.05 5.29 5.29 0 0 0-.93.27 5.47 5.47 0 0 0-1.41.83c-.72.61-1 1.14-.93 1.17s.42-.39 1.14-.88a6.15 6.15 0 0 1 1.36-.68 5.69 5.69 0 0 1 .86-.22c.32-.07.59-.06.66.08s0 .08 0 .17a1.78 1.78 0 0 1-.34.24l-.8.41a8.51 8.51 0 0 1-1.46.48 11.47 11.47 0 0 0-1.46.28z"/><path d="M80 372.66a2.36 2.36 0 0 0 .45-1.41 4.7 4.7 0 0 0-.12-1.63 4.65 4.65 0 0 0-.34-.92 1.22 1.22 0 0 0-.91-.79.67.67 0 0 0-.63.38 1.8 1.8 0 0 0-.18.54 3.35 3.35 0 0 0 0 1 3.39 3.39 0 0 0 .56 1.56c.54.8 1.14 1 1.15.95s-.44-.37-.85-1.13a3.39 3.39 0 0 1-.4-1.41 3.16 3.16 0 0 1 .07-.86c.06-.31.19-.56.31-.52s.38.25.49.51a4.69 4.69 0 0 1 .33.82 5.32 5.32 0 0 1 .22 1.49c-.08.86-.26 1.39-.15 1.42zm60.22-119.26S94 234 79.7 233.19c-9-.52-15.76 5.24-14.54 14.52.61 4.65 13.38 59 13.38 59L98 297.83l-9.36-37.59 38 18.46z"/></g><g class="C"><path d="M82.83 250.73c-.15.13 1.38 2.1 3 4.71l2.88 4.79c.18-.07-.65-2.48-2.3-5.14s-3.41-4.48-3.58-4.36z"/><path d="M79.05 252.89c-.1.17 2.23 1.65 5 3.67l5 3.65c.15-.14-1.85-2.21-4.63-4.21s-5.29-3.27-5.37-3.11z"/></g><path d="M176.27 265.06s-5.81 7.49-11.35 9.54c-7 2.57-58.46 26.86-58.46 26.86l-8.6 66.49-21.55-.52 2.34-63.91c.28-8.18 6.84-17.58 13.89-21.76l47.68-28.36z" class="B"/><path d="M78.24 315.22a3.38 3.38 0 0 0 .09-.88c0-.64.08-1.47.13-2.51a86.25 86.25 0 0 1 .86-9.19A31.55 31.55 0 0 1 84 290a24.15 24.15 0 0 1 5.54-5.72 66.54 66.54 0 0 1 7.31-4.63c10.37-5.94 19.32-12 25.94-16.15l7.84-4.91 2.14-1.32a4.6 4.6 0 0 0 .73-.5 4.36 4.36 0 0 0-.79.38l-2.21 1.21c-1.91 1.07-4.63 2.69-8 4.73-6.69 4.06-15.69 10.05-26 16a66.27 66.27 0 0 0-7.38 4.69 24.46 24.46 0 0 0-5.66 5.9 31.65 31.65 0 0 0-4.61 12.95 72 72 0 0 0-.64 9.25v2.52a4.59 4.59 0 0 0 .03.82zm79.01-42.85a16.26 16.26 0 0 0-1.32-1.77 12.94 12.94 0 0 1-2-10 16.18 16.18 0 0 0 .52-2.15 4.82 4.82 0 0 0-1 2 11.47 11.47 0 0 0-.22 5.46 11.32 11.32 0 0 0 2.32 4.94c.91 1.15 1.66 1.58 1.7 1.52zm-73.02 95.06a1.35 1.35 0 0 0 .06-.35c0-.28.08-.62.13-1.05l.43-4 1.47-14.87 1-10.27a312.88 312.88 0 0 0 1-11.8c.27-4.16.71-8.51 1.47-13a53.2 53.2 0 0 1 4-13.35 45 45 0 0 1 7.82-11.47 71.1 71.1 0 0 1 9.76-8.6A197.42 197.42 0 0 1 130.08 267c5.47-3.14 9.83-5.82 12.72-7.84 1.46-1 2.56-1.81 3.3-2.38l.83-.65q.28-.22.27-.24a1.27 1.27 0 0 0-.31.18l-.87.6-3.36 2.28c-2.94 1.94-7.32 4.55-12.82 7.64A187.9 187.9 0 0 0 111 278.17a70.28 70.28 0 0 0-9.88 8.65 45.3 45.3 0 0 0-7.95 11.64 53.69 53.69 0 0 0-4 13.51c-.75 4.5-1.13 8.87-1.44 13l-1 11.8c-.38 3.69-.62 7.13-.89 10.28l-1.25 14.89q-.2 2.58-.3 4c0 .43-.05.78-.07 1.05s-.01.44.01.44z" class="C"/><path d="M135,143.34a8.43,8.43,0,0,0-9.63-5.19,10,10,0,0,1-2.68.58,19.13,19.13,0,0,1-3.26-.86,4.9,4.9,0,0,0-5.52,3.58,6.65,6.65,0,0,0-5.49,1.09,4.31,4.31,0,0,0-1.29,5.18c.39.73,1,1.31,1.39,2.06.59,1.23.32,2.71.73,4a5.4,5.4,0,0,0,4.66,3.34,15.87,15.87,0,0,0,6-.85" class="B"/><path d="M125.69 182.89l-.41-3.3s-6.45 0-9-8c-1.29-4-2.15-10.68-2.67-16.2a8.75 8.75 0 0 1 8.25-9.58l17.12-.89.37 2.65 4.51 32.92a9.14 9.14 0 0 1-7.87 10.3h0a9.16 9.16 0 0 1-10.3-7.9z" class="F"/><path d="M116 160.1a1.07 1.07 0 0 0 1.18.9 1 1 0 0 0 .93-1.12 1.05 1.05 0 0 0-1.18-.9 1 1 0 0 0-.93 1.12zm-.44-1.48c.15.11.85-.6 2-.78s2 .26 2.15.1-.12-.3-.52-.5a2.86 2.86 0 0 0-1.75-.25 2.74 2.74 0 0 0-1.55.79c-.33.32-.41.59-.33.64zm11.16-.34a1.06 1.06 0 0 0 1.18.89 1 1 0 0 0 .94-1.11 1.07 1.07 0 0 0-1.18-.9 1 1 0 0 0-.94 1.12zm-.02-1.22c.15.12.85-.6 2-.77s2 .25 2.15.09-.12-.29-.52-.5a3 3 0 0 0-1.75-.25 2.84 2.84 0 0 0-1.55.79c-.33.32-.4.58-.33.64zm-2.77 9.04a7.07 7.07 0 0 0-1.89 0c-.29 0-.57 0-.65-.19a1.47 1.47 0 0 1 0-.89l.51-2.33a39.85 39.85 0 0 0 1-6.05 38.87 38.87 0 0 0-1.49 6l-.46 2.35a1.63 1.63 0 0 0 0 1.15.75.75 0 0 0 .54.35 2 2 0 0 0 .5 0 7.83 7.83 0 0 0 1.94-.39z" class="B"/><path d="M125.28,179.59a21.09,21.09,0,0,0,10.5-4.67S134,181,125.69,181.51Z" class="G"/><path d="M127.38 166.35c-.19 0 0 1.24-.9 2.28s-2.24 1.11-2.23 1.28.33.2.89.12a3 3 0 0 0 1.86-1 2.65 2.65 0 0 0 .68-1.9c-.03-.52-.22-.8-.3-.78zm-1.68-13.67c.16.29 1.27 0 2.62-.09s2.48.14 2.61-.16-.17-.4-.65-.63a4.52 4.52 0 0 0-4 .19c-.44.27-.65.55-.58.69zm-10.25 2.6c.24.22 1-.17 1.91-.33s1.76-.1 1.9-.4c.06-.14-.11-.38-.49-.56a2.7 2.7 0 0 0-1.63-.18 2.66 2.66 0 0 0-1.44.76c-.29.32-.36.6-.25.71zm-2.74-3.5s4.53 1.53 9.73-1.95c3.41-2.28 7.55-3.71 8.58-3.09s1.7 4.34 5.45 5c0 0 .66 7.2 3.49 6.58 2-.44.84-8.38 0-12.91a4 4 0 0 0-3.74-3.21l-5.27-.21-6.58 1.84-7.06 1.92-5.38 2.25z" class="B"/><path d="M139.33 155.39c.1-.07 4.47-2.37 5.28 2.4s-4.14 4.59-4.18 4.46-1.1-6.86-1.1-6.86z" class="F"/><path d="M141.58 160.19a1.45 1.45 0 0 0 .25.09.85.85 0 0 0 .62-.09 2.11 2.11 0 0 0 .64-2 2.84 2.84 0 0 0-.43-1.15 1 1 0 0 0-.74-.53.43.43 0 0 0-.45.31v.25c0 .02-.11-.07-.11-.27a.55.55 0 0 1 .14-.33.65.65 0 0 1 .44-.2 1.18 1.18 0 0 1 1 .59 2.81 2.81 0 0 1 .51 1.28 2.17 2.17 0 0 1-.86 2.27.91.91 0 0 1-.78 0c-.2-.1-.24-.2-.23-.22z" class="G"/><path d="M115 139.69a5.05 5.05 0 0 0 .5.64 4.11 4.11 0 0 0 1.8 1.16 6 6 0 0 0 3.18.14 29.53 29.53 0 0 0 3.85-1.22 10.53 10.53 0 0 1 4.08-.73 4.52 4.52 0 0 1 3.11 1.4 3.3 3.3 0 0 1 .95 2.08 1.37 1.37 0 0 1-.14.83c-.05 0 0-.3-.06-.81a3.33 3.33 0 0 0-1-1.85 4.21 4.21 0 0 0-2.86-1.17 10.64 10.64 0 0 0-3.89.74 25 25 0 0 1-3.93 1.2 6.14 6.14 0 0 1-3.39-.26 4 4 0 0 1-1.84-1.38c-.36-.46-.36-.76-.36-.77zm16.11 4.57s-.24-.25-.74-.6A4.49 4.49 0 0 0 128 143a7.77 7.77 0 0 0-3.64.89 37.72 37.72 0 0 1-4.34 2 10.79 10.79 0 0 1-8.54-.93 9.38 9.38 0 0 1-2.11-1.62 2.81 2.81 0 0 1-.6-.76 16.83 16.83 0 0 0 2.88 2.05 10.85 10.85 0 0 0 8.21.77 46.55 46.55 0 0 0 4.3-2 7.7 7.7 0 0 1 3.86-.82 4.35 4.35 0 0 1 2.5.91 1.83 1.83 0 0 1 .59.77z" class="C"/><path d="M116.3 225.52l-23.22-19.79-7.66 1.73s8.07 16.78 13.91 22.93c0 0 5.77 7.72 15.29 4.38s1.68-9.25 1.68-9.25z" class="F"/><path d="M91.32 183.93h-9.87a2.51 2.51 0 0 0-2.29 3.15l9.93 19.33a2.24 2.24 0 0 0 2 1.22h12a1.72 1.72 0 0 0 1.31-2.55l-9.57-18.93a4 4 0 0 0-3.51-2.22z" class="C"/><path d="M90.66 185.1h-9.87a1.65 1.65 0 0 0-1.48 2.4L89 206.41a2.26 2.26 0 0 0 2 1.22h11.9a1 1 0 0 0 .87-1.41l-9.58-18.92a3.93 3.93 0 0 0-3.53-2.2z" class="B"/><path d="M89.82 193l-6 2.4-1.28 4.84 2.89 7.2L96 209l-3.1-3.17.39-2.77s3-.93 3-1.38-.37-2-.82-2.05a22.79 22.79 0 0 0-3.47 1.09s3.67-2.91 3.57-3.38-.5-1.66-1.23-1.8-6.67 2.67-6.67 2.67l-1 2.19-.84-3.51s5.29-1.48 3.99-3.89z" class="F"/><path d="M90.58 204.36s-.15-.2-.21-.6a3.27 3.27 0 0 1 1-2.78c.3-.26.53-.35.55-.32a6.53 6.53 0 0 0-1.11 1.7 6.63 6.63 0 0 0-.23 2zm-2.86-1.05a11.18 11.18 0 0 0 .24-1.57 6.83 6.83 0 0 1 .3-1.74 2.38 2.38 0 0 1 1.54-1.55l3.67-1.25a8.88 8.88 0 0 1 1.55-.43 7.44 7.44 0 0 1-1.47.64l-3.64 1.33a2.38 2.38 0 0 0-.88.54 2.32 2.32 0 0 0-.5.82 7.13 7.13 0 0 0-.35 1.67 3.19 3.19 0 0 1-.46 1.54zm-1.38-1.08a2.53 2.53 0 0 1 0-1.19c.11-.64.26-1.14.35-1.13a2.55 2.55 0 0 1 0 1.19c-.11.64-.26 1.14-.35 1.13z" class="G"/><path d="M86.18 188.75a1.26 1.26 0 1 0 1.26-1.26 1.25 1.25 0 0 0-1.26 1.26z" class="E"/><path d="M51.6 379.36a12.18 12.18 0 0 1 7.28 6.17 21.48 21.48 0 0 1 2.23 9.47c.2 6.32-2.42 13.12-5.51 18.65-5.91-3.8-8.27-11.65-9.23-15.65-1.5-6.38-.35-18.82 5.23-18.65m11.59 43.7a10.41 10.41 0 0 1 1.9-10.27 13.78 13.78 0 0 1 9.63-4.61c1.68-.12 3.56.1 4.71 1.34a4.45 4.45 0 0 1 .72 4.45 9 9 0 0 1-2.83 3.73c-4.13 3.52-8.77 6.16-14.13 5.36" class="D"/><g class="B"><path d="M59.25 443.12a6.22 6.22 0 0 1 0-1.3l.13-3.55a36.57 36.57 0 0 1 2-11.57 22.36 22.36 0 0 1 6.7-9.58 15.43 15.43 0 0 1 3-1.9c.38-.19.7-.28.9-.37s.32-.11.33-.09a20.79 20.79 0 0 0-10.52 12.1 39.37 39.37 0 0 0-2.07 11.43l-.27 3.54a7.91 7.91 0 0 1-.2 1.29z"/><path d="M51.56 388.91a3.93 3.93 0 0 1 .14.55q.13.62.33 1.59l1.1 5.87c.89 5 2 11.85 3.09 19.47a520.11 520.11 0 0 1 2.42 19.56l.57 5.95q.07 1 .12 1.62a1.83 1.83 0 0 1 0 .56 3.2 3.2 0 0 1-.1-.56l-.21-1.61-.72-5.92-2.54-19.54L52.81 397l-1-5.9-.25-1.6a2.23 2.23 0 0 1 0-.59z"/></g><path d="M54.67,428.16A24.31,24.31,0,0,0,39,412.44c-1.88-.59-4.24-.8-5.5.71s-.58,3.81.39,5.52a20.76,20.76,0,0,0,20.77,10" class="D"/><path d="M40.67 418.22a6.72 6.72 0 0 1 1.18.32 11.57 11.57 0 0 1 1.35.49c.52.23 1.13.43 1.75.77a22.15 22.15 0 0 1 2 1.11 26 26 0 0 1 2.21 1.49 25.13 25.13 0 0 1 7.64 9.38 23.84 23.84 0 0 1 1 2.47 18.44 18.44 0 0 1 .65 2.22 16.94 16.94 0 0 1 .36 1.88 11.34 11.34 0 0 1 .17 1.43A7.16 7.16 0 0 1 59 441c-.11 0-.18-1.75-.89-4.46a22.06 22.06 0 0 0-.68-2.17 22.91 22.91 0 0 0-1-2.42 27.58 27.58 0 0 0-3.21-5 28.5 28.5 0 0 0-4.3-4.18 25.41 25.41 0 0 0-2.15-1.49 21.22 21.22 0 0 0-2-1.15c-2.45-1.33-4.14-1.82-4.1-1.91z" class="B"/><defs ><path id="B" d="M427 299.92s.28 0 .79-.12a5.56 5.56 0 0 0 2.1-.84 5.31 5.31 0 0 0 2.14-2.78 6 6 0 0 0 .28-2.2 5.48 5.48 0 0 0-.62-2.38 5.31 5.31 0 0 0-4.61-2.81h-6.74-15.45a5.2 5.2 0 0 0-3.52 1.38 5.25 5.25 0 0 0-1.68 3.27 6 6 0 0 0 .64 3.53 5.32 5.32 0 0 0 2.56 2.27 8.13 8.13 0 0 0 3.33.41h3.27 5.88l8.51.08 2.31.05a4.29 4.29 0 0 1 .81.06 7.37 7.37 0 0 1-.81.05h-2.31l-8.51.08h-5.88-3.27-1.73a5.55 5.55 0 0 1-1.78-.41 5.75 5.75 0 0 1-2.81-2.47 6.31 6.31 0 0 1-.71-3.83 5.75 5.75 0 0 1 5.7-5.11h15.45 6.75a5.67 5.67 0 0 1 4.92 3.07 5.81 5.81 0 0 1 .63 2.54 6.35 6.35 0 0 1-.33 2.3 5.55 5.55 0 0 1-2.31 2.86 5.13 5.13 0 0 1-2.19.77 3.55 3.55 0 0 1-.81.23z"/></defs></svg>