<svg xmlns="http://www.w3.org/2000/svg" viewBox="0 0 750 500"><g id="freepik--Shadow--inject-89"><ellipse cx="388.38" cy="433.07" rx="327.88" ry="17.89" style="fill:#ebebeb"></ellipse></g><g id="freepik--Floor--inject-89"><polygon points="29.4 399.61 115.26 399.37 201.11 399.28 372.83 399.12 544.55 399.28 630.4 399.37 716.26 399.61 630.4 399.86 544.55 399.95 372.83 400.11 201.11 399.94 115.26 399.86 29.4 399.61" style="fill:#263238"></polygon></g><g id="freepik--Plants--inject-89"><path d="M147.18,399.6s-1.84-8.6-5.52-9.93-5.92,2.54-5.92,2.54-.87-8.22-6.09-10.68-9.13,2.58-9.13,2.58-4-10.42-11.16-10.42S98.6,388.94,98.6,388.94s-4.22-4.55-8.55-2-4.33,12.64-4.33,12.64Z" style="fill:#455a64"></path><path d="M283.6,399.6H218.91s2.13-9.12,6.42-9.77,6.29,3.59,6.29,3.59-.2-12.72,7.81-14.89,14.73,9.07,14.73,9.07,5-6.41,11.87-6,8.58,11,8.58,11S280.85,388.92,283.6,399.6Z" style="fill:#37474f"></path><path d="M94.55,399.6h-34s.08-5.07,3.42-6.42a4.57,4.57,0,0,1,5.34,1.28s1.37-9.32,7.6-9.32,9.23,8,9.23,8a4.77,4.77,0,0,1,4.86-2C94.41,391.66,94.55,399.6,94.55,399.6Z" style="fill:#37474f"></path></g><g id="freepik--Truck--inject-89"><path d="M369.3,190.62l8.37,185.8H530L514.23,301l-50.76-16a9.52,9.52,0,0,1-5.76-5.66l-30.35-77.94Z" style="fill:#FF6677"></path><polygon points="386.08 210.18 389.88 277.21 444.85 282.36 421.16 212.63 386.08 210.18" style="fill:#455a64"></polygon><g style="opacity:0.30000000000000004"><polygon points="388.16 246.9 389.03 262.19 405.51 278.67 421.42 280.17 388.16 246.9" style="fill:#fff"></polygon><polygon points="397.32 210.97 432.57 246.22 428.87 235.29 405.08 211.5 397.32 210.97" style="fill:#fff"></polygon><polygon points="386.53 218.06 386.63 219.91 442.68 275.96 441.77 273.3 386.53 218.06" style="fill:#fff"></polygon><polygon points="389.35 267.83 389.45 269.69 397.7 277.94 399.64 278.12 389.35 267.83" style="fill:#fff"></polygon></g><polygon points="386.08 210.18 421.16 212.63 444.85 282.36 441.17 282.01 418.78 216.09 386.25 213.12 386.08 210.18" style="fill:#263238"></polygon><rect x="460.65" y="286.66" width="1" height="86.93" style="fill:#263238"></rect><path d="M520.93,301.2l-12.39-2,7.22,25.51,6.38-.67a2.63,2.63,0,0,0,2.35-2.82l-1.35-17.66A2.66,2.66,0,0,0,520.93,301.2Z" style="fill:#fff"></path><path d="M451.67,264.34c-3,2.53-.29,25.29,1.82,24.9s6.64-1.25,8.46-2.69,12.12-19.86,9.62-23.68S454,262.39,451.67,264.34Z" style="fill:#FF6677"></path><path d="M451.67,264.34c-3,2.53-.29,25.29,1.82,24.9s6.64-1.25,8.46-2.69,12.12-19.86,9.62-23.68S454,262.39,451.67,264.34Z" style="opacity:0.1"></path><polygon points="411.81 296.78 392.94 296.78 392.94 291.48 411.81 292.51 411.81 296.78" style="opacity:0.1"></polygon><polygon points="373.46 376.42 60.33 376.42 76.9 153.13 362.18 137.99 373.46 376.42" style="fill:#FF6677"></polygon><path d="M126.62,313a2,2,0,0,1,2.65-.26,9.68,9.68,0,0,0,6.42,2.76,8.81,8.81,0,0,0,4.68-1.32,4.28,4.28,0,0,0,2-2.58,1.87,1.87,0,0,0-.11-1.15,2.69,2.69,0,0,0-.92-1.06,12.06,12.06,0,0,0-4.64-1.74h-.08a17.63,17.63,0,0,1-4.35-1.4,6,6,0,0,1-2.87-2.8,5.06,5.06,0,0,1-.29-2.91,8.21,8.21,0,0,1,3.83-5.23,12,12,0,0,1,6.52-1.92c3.47,0,5.68,1.7,7.3,2.88a1.73,1.73,0,0,1,.07,2.54,1.92,1.92,0,0,1-2.61.52c-1.63-1.18-3.21-2.29-5.39-2.25a7.67,7.67,0,0,0-4.27,1.18,3.77,3.77,0,0,0-1.77,2.28,1.5,1.5,0,0,0,.11,1,2.38,2.38,0,0,0,.78.92,10.59,10.59,0,0,0,4.23,1.58H138a17.14,17.14,0,0,1,4.71,1.51,6.52,6.52,0,0,1,3,3,5.2,5.2,0,0,1,.29,3.1,8.75,8.75,0,0,1-4,5.56,13.05,13.05,0,0,1-7,2,12.67,12.67,0,0,1-8.58-3.61A1.83,1.83,0,0,1,126.62,313Z" style="fill:#263238"></path><path d="M157.61,308.3l-1.55,8.84a2.51,2.51,0,0,1-2.39,2,1.65,1.65,0,0,1-1.66-2l3.8-21.74a2.59,2.59,0,0,1,2.43-2,1.65,1.65,0,0,1,1.66,2l-1.55,8.84h9.54l1.55-8.84a2.58,2.58,0,0,1,2.4-2,1.67,1.67,0,0,1,1.69,2l-3.83,21.74a2.55,2.55,0,0,1-2.4,2,1.67,1.67,0,0,1-1.69-2l1.55-8.84Z" style="fill:#263238"></path><path d="M181.93,319.21a1.67,1.67,0,0,1-1.69-2l3.83-21.74a2.58,2.58,0,0,1,2.4-2,1.67,1.67,0,0,1,1.69,2l-3.83,21.74A2.57,2.57,0,0,1,181.93,319.21Z" style="fill:#263238"></path><path d="M191.22,317.11l3.83-21.75a2.58,2.58,0,0,1,2.4-2H204a6.44,6.44,0,0,1,6.53,7.88,9.87,9.87,0,0,1-9.29,7.92h-4.57l-1.4,8a2.55,2.55,0,0,1-2.4,2A1.66,1.66,0,0,1,191.22,317.11Zm12.12-19.68h-4.57l-1.32,7.62H202a4.79,4.79,0,0,0,4.5-3.83A3.1,3.1,0,0,0,203.34,297.43Z" style="fill:#263238"></path><path d="M212.7,317.11l3.84-21.75a2.58,2.58,0,0,1,2.39-2h6.6a6.44,6.44,0,0,1,6.52,7.88,9.86,9.86,0,0,1-9.29,7.92h-4.57l-1.4,8a2.55,2.55,0,0,1-2.39,2A1.67,1.67,0,0,1,212.7,317.11Zm12.13-19.68h-4.57l-1.33,7.62h4.53a4.79,4.79,0,0,0,4.5-3.83A3.09,3.09,0,0,0,224.83,297.43Z" style="fill:#263238"></path><path d="M236.14,319.21a1.68,1.68,0,0,1-1.7-2l3.84-21.74a2.58,2.58,0,0,1,2.39-2,1.67,1.67,0,0,1,1.7,2l-3.83,21.74A2.57,2.57,0,0,1,236.14,319.21Z" style="fill:#263238"></path><path d="M249.26,295.51a2.51,2.51,0,0,1,1.18-1.73,1.84,1.84,0,0,1,2.72.44l9.07,16.66,2.69-15.37a2.58,2.58,0,0,1,2.4-2,1.67,1.67,0,0,1,1.69,2l-3.83,21.63a2.49,2.49,0,0,1-2.4,2,1.66,1.66,0,0,1-1.4-.7,2,2,0,0,1-.14-.26l-9-16.51-2.72,15.44a2.5,2.5,0,0,1-2.4,2,1.64,1.64,0,0,1-1.66-2Z" style="fill:#263238"></path><path d="M274.46,306.23a16.24,16.24,0,0,1,15.48-12.89,11.22,11.22,0,0,1,7.71,2.8,2,2,0,0,1-.15,2.83,2.12,2.12,0,0,1-2.91.37,8,8,0,0,0-5.38-1.95,10.86,10.86,0,0,0-6.93,2.62,10.5,10.5,0,0,0-3.72,6.22,7.29,7.29,0,0,0,1.54,6.19,7.66,7.66,0,0,0,6,2.62,10.54,10.54,0,0,0,5.16-1.4l.88-4.9H287a1.65,1.65,0,0,1-1.66-2,2.49,2.49,0,0,1,2.4-2h7.11a1.66,1.66,0,0,1,1.7,2l-1.4,8a3.08,3.08,0,0,1-.19.56l-.11.22,0,0a2.32,2.32,0,0,1-.77.85,15.63,15.63,0,0,1-8.66,2.8h0C278.15,319.09,273.21,313.38,274.46,306.23Z" style="fill:#263238"></path><path d="M311.36,223l-42-35.53L114.61,200,124,289.21l149.14-19.59Zm-17.84.6a7,7,0,1,1-8.54-5.24A7.09,7.09,0,0,1,293.52,223.59Z" style="fill:#fff"></path><path d="M139.2,260.36l-4-33a3.09,3.09,0,0,1,2.71-3.45h.16l18.15-2.19a3.13,3.13,0,0,1,.75,6.21l-15.18,1.84L143,240l13.05-1.58a3.13,3.13,0,0,1,.75,6.22l-13.05,1.57,1.62,13.44a3.13,3.13,0,0,1-2.76,3.46A3.09,3.09,0,0,1,139.2,260.36Z" style="fill:#263238"></path><path d="M198.82,251.57a3.12,3.12,0,0,1-1.49,4.16,5.22,5.22,0,0,1-1.21.32h-.06a4.08,4.08,0,0,1-2.26-.35,5.5,5.5,0,0,1-2-1.74,15,15,0,0,1-2-6.58,4.79,4.79,0,0,0-1-2.33,5.36,5.36,0,0,0-1.87-1.42,11.08,11.08,0,0,0-3.3-1l-6.61.8,1.47,12.16a3.15,3.15,0,0,1-2.77,3.46,3.1,3.1,0,0,1-3.45-2.71l-4-33.05a3.06,3.06,0,0,1,2.71-3.45h.06l10-1.2A12.07,12.07,0,0,1,191.21,239a8.84,8.84,0,0,1,2.22,1.83,10.68,10.68,0,0,1,2.57,5.83,14.18,14.18,0,0,0,.63,3.27A3.06,3.06,0,0,1,198.82,251.57ZM188.26,230a5.82,5.82,0,0,0-6.47-5.12l-6.89.83,1.39,11.54,6.89-.84A5.79,5.79,0,0,0,188.26,230Z" style="fill:#263238"></path><path d="M208.08,252.05l-4-33.05a3.06,3.06,0,0,1,2.7-3.45H207l18.15-2.19a3.13,3.13,0,0,1,3.45,2.71,3.17,3.17,0,0,1-2.7,3.5l-15.18,1.84,1.24,10.25L225,230.06a3.13,3.13,0,0,1,.75,6.22l-13.05,1.57,1.24,10.31,15.18-1.84a3.13,3.13,0,0,1,.75,6.22l-18.14,2.19c-.12,0-.12,0-.12,0l-.05.06A3.08,3.08,0,0,1,208.08,252.05Z" style="fill:#263238"></path><path d="M241.28,248l-4-33a3.06,3.06,0,0,1,2.71-3.45h.17l18.14-2.19a3.13,3.13,0,0,1,3.46,2.71,3.18,3.18,0,0,1-2.71,3.5l-15.17,1.84,1.23,10.25,13.05-1.58a3.13,3.13,0,0,1,.75,6.22l-13,1.57,1.24,10.31,15.18-1.84a3.13,3.13,0,0,1,.75,6.22l-18.15,2.19c-.11,0-.12,0-.12,0l-.05.06A3.1,3.1,0,0,1,241.28,248Z" style="fill:#263238"></path><path d="M289.16,223.38a66.08,66.08,0,0,1,8.56,0,85.21,85.21,0,0,1,8.57.88,75.7,75.7,0,0,1,16.82,4.55,53.82,53.82,0,0,1,8,4.07c1.29.78,2.52,1.68,3.74,2.59l1.77,1.48c.58.5,1.12,1.06,1.68,1.59a33.26,33.26,0,0,1,5.67,7.5l1.07,2.13c.31.73.58,1.49.87,2.23a23.23,23.23,0,0,1,.71,2.24l.32,1.12.24,1.14a33.78,33.78,0,0,1,.75,9.36,35.24,35.24,0,0,1-1.86,9.18,43.29,43.29,0,0,1-9.55,15.39,59.05,59.05,0,0,1-13.89,10.79,55.11,55.11,0,0,1-16.14,6.2l-.23-.75a74.29,74.29,0,0,0,14.2-8.72A68.12,68.12,0,0,0,332.07,285a42,42,0,0,0,7.42-13.69,29.18,29.18,0,0,0,.66-14.92l-.18-.93-.26-.91a16.59,16.59,0,0,0-.55-1.81c-.22-.57-.42-1.16-.65-1.73l-.79-1.68a29.16,29.16,0,0,0-4.31-6.13,46.09,46.09,0,0,0-12.64-9.36,95.85,95.85,0,0,0-15.26-6.23A154.12,154.12,0,0,0,289.16,223.38Z" style="fill:#263238"></path><polygon points="313.73 292.59 307.29 305.18 320.32 310.68 300.91 307.5 313.73 292.59" style="fill:#263238"></polygon><polygon points="373.46 376.41 60.33 376.41 61.22 364.43 371.98 344.92 373.46 376.41" style="opacity:0.1"></polygon><polygon points="58.75 386.46 536.98 386.46 536.98 372.23 536.98 372.23 58.75 372.23 58.75 386.46" style="fill:#ebebeb"></polygon><polygon points="546.93 365.39 499.23 368.32 499.23 368.32 499.23 388.62 550.49 388.62 550.49 388.62 546.93 365.39" style="fill:#dbdbdb"></polygon><polygon points="79.34 388.62 79.34 368.75 49.24 365.64 45.54 388.62 79.34 388.62" style="fill:#dbdbdb"></polygon><path d="M116.12,391.48l-9.9-1.45c1.89-12.87,13.17-37.22,42.38-37.22s40.27,24.39,42,37.28l-9.91,1.34,5-.67-5,.68c-.16-1.17-4.36-28.63-32.1-28.63C120.64,362.81,116.29,390.31,116.12,391.48Z" style="fill:#c7c7c7"></path><path d="M148.41,358.88c-46.63,0-46.7,72.47,0,72.47S195.12,358.88,148.41,358.88Z" style="fill:#263238"></path><path d="M148.41,378.67c-21.16,0-21.2,32.89,0,32.89S169.61,378.67,148.41,378.67Z" style="fill:#c7c7c7"></path><path d="M395.44,391.5,385.55,390c1.88-12.87,13.16-37.22,42.38-37.22s40.26,24.39,42,37.28L460,391.43l5-.67-5,.68c-.17-1.17-4.37-28.63-32.1-28.63S395.62,390.33,395.44,391.5Z" style="fill:#c7c7c7"></path><path d="M427.91,358.88c-46.63,0-46.7,72.47,0,72.47S474.62,358.88,427.91,358.88Z" style="fill:#263238"></path><path d="M427.91,378.67c-21.16,0-21.2,32.89,0,32.89S449.11,378.67,427.91,378.67Z" style="fill:#c7c7c7"></path></g><g id="freepik--Boxes--inject-89"><rect x="575.16" y="378.25" width="52.73" height="58.4" style="fill:#FF6677"></rect><rect x="575.16" y="378.25" width="52.73" height="58.4" style="opacity:0.1"></rect><rect x="547.93" y="378.25" width="27.23" height="58.4" transform="translate(1123.09 814.9) rotate(180)" style="fill:#FF6677"></rect><rect x="547.93" y="378.25" width="27.23" height="58.4" transform="translate(1123.09 814.9) rotate(180)" style="opacity:0.32"></rect><polygon points="597.05 390.87 598.17 390.87 599.01 390.87 599.49 389.9 600.16 390.87 601.07 388.87 601.93 390.87 604.4 390.87 605.52 390.87 605.93 389.54 606.32 390.87 607.05 390.87 607.05 378.25 597.05 378.25 597.05 390.87" style="fill:#fff"></polygon><path d="M549.81,432.63q3-6.24,6-12.5l5.91-12.56L567.54,395q2.91-6.31,5.74-12.68-3,6.24-6,12.5l-5.91,12.56L555.55,420Q552.66,426.27,549.81,432.63Z" style="fill:#FF6677"></path><path d="M549.81,382.27q2.84,6.36,5.74,12.68l5.83,12.62,5.91,12.56q3,6.27,6,12.5-2.84-6.36-5.74-12.68l-5.83-12.62-5.91-12.56Q552.83,388.5,549.81,382.27Z" style="fill:#FF6677"></path><rect x="599.57" y="319.85" width="52.73" height="58.4" style="fill:#FF6677"></rect><rect x="599.57" y="319.85" width="52.73" height="58.4" style="opacity:0.1"></rect><rect x="572.34" y="319.85" width="27.23" height="58.4" transform="translate(1171.92 698.11) rotate(180)" style="fill:#FF6677"></rect><rect x="572.34" y="319.85" width="27.23" height="58.4" transform="translate(1171.92 698.11) rotate(180)" style="opacity:0.32"></rect><polygon points="621.47 332.47 622.58 332.47 623.42 332.47 623.9 331.5 624.57 332.47 625.48 330.47 626.34 332.47 628.81 332.47 629.94 332.47 630.35 331.14 630.73 332.47 631.46 332.47 631.46 319.85 621.47 319.85 621.47 332.47" style="fill:#fff"></polygon><path d="M574.22,374.23q3-6.23,6-12.5l5.91-12.56L592,336.56q2.91-6.33,5.75-12.68-3,6.22-6,12.49l-5.91,12.56L580,361.55Q577.06,367.87,574.22,374.23Z" style="fill:#FF6677"></path><path d="M574.22,323.88q2.85,6.36,5.74,12.68l5.83,12.61,5.91,12.56q3,6.27,6,12.5-2.85-6.36-5.75-12.68l-5.83-12.62-5.91-12.56Q577.26,330.1,574.22,323.88Z" style="fill:#FF6677"></path><rect x="642.91" y="378.25" width="52.73" height="58.4" style="fill:#FF6677"></rect><rect x="642.91" y="378.25" width="52.73" height="58.4" style="opacity:0.1"></rect><rect x="615.68" y="378.25" width="27.23" height="58.4" transform="translate(1258.59 814.9) rotate(180)" style="fill:#FF6677"></rect><rect x="615.68" y="378.25" width="27.23" height="58.4" transform="translate(1258.59 814.9) rotate(180)" style="opacity:0.32"></rect><polygon points="664.8 390.87 665.92 390.87 666.76 390.87 667.24 389.9 667.91 390.87 668.82 388.87 669.68 390.87 672.15 390.87 673.28 390.87 673.68 389.54 674.07 390.87 674.8 390.87 674.8 378.25 664.8 378.25 664.8 390.87" style="fill:#fff"></polygon><path d="M617.56,432.63q3-6.24,6-12.5l5.91-12.56L635.29,395q2.91-6.31,5.74-12.68-3,6.24-6,12.5l-5.91,12.56L623.3,420Q620.41,426.27,617.56,432.63Z" style="fill:#FF6677"></path><path d="M617.56,382.27q2.84,6.36,5.74,12.68l5.83,12.62L635,420.13q3,6.27,6,12.5-2.84-6.36-5.74-12.68l-5.83-12.62-5.91-12.56Q620.58,388.5,617.56,382.27Z" style="fill:#FF6677"></path></g><g id="freepik--Character--inject-89"><path d="M489.74,437.34c1.92.61,56.51-.09,58.57-1.44.79-.5,1.15-8.46,1.31-18.09v-.3c0-2,.06-4,.07-6.1,0-.29,0-.57,0-.86l-2.65-28.32-36.52.37,3.6,28,0,1.11.22,5.81,0,.6s-20.78,9.61-22.89,11.34S487.83,436.73,489.74,437.34Z" style="fill:#ad6359"></path><path d="M489.74,437.34c1.92.61,56.51-.09,58.57-1.44.79-.5,1.15-8.46,1.31-18.09v-.3c0-2,.06-4,.07-6.1,0-.29,0-.57,0-.86l-35.57.1,0,1.11.22,5.81,0,.6s-20.78,9.61-22.89,11.34S487.83,436.73,489.74,437.34Z" style="fill:#ebebeb"></path><path d="M489.74,437.33c1,.32,15.81.29,30.31,0,2.91-.05,5.81-.12,8.58-.2,10.33-.28,18.88-.71,19.67-1.22s1.14-8.24,1.3-17.69c0-.13,0-.27,0-.4s0-.21,0-.31h0l-35.18.07v.6s-20.77,9.61-22.88,11.33S487.82,436.72,489.74,437.33Z" style="fill:#FF6677"></path><path d="M490.33,435.21c9.2-.34,46.34-.87,55.46-.51.07,0,.07.05,0,.06-9.11.54-46.25.76-55.46.6C490.14,435.36,490.14,435.22,490.33,435.21Z" style="fill:#263238"></path><path d="M510.48,417.72c3.61-.72,8-.22,10.85,2.32.1.1,0,.25-.16.22a50.87,50.87,0,0,0-10.67-2.08A.23.23,0,0,1,510.48,417.72Z" style="fill:#263238"></path><path d="M507.88,419.33c3.62-.72,8-.22,10.85,2.32.11.1,0,.25-.15.22a51,51,0,0,0-10.68-2.08A.23.23,0,0,1,507.88,419.33Z" style="fill:#263238"></path><path d="M505.29,420.94c3.61-.72,8.05-.22,10.85,2.32.11.1,0,.25-.15.21a51.59,51.59,0,0,0-10.68-2.07A.23.23,0,0,1,505.29,420.94Z" style="fill:#263238"></path><path d="M520.05,437.32c2.91-.05,5.81-.12,8.58-.2,10.33-.28,18.88-.71,19.67-1.22s1.14-8.24,1.3-17.69c0-.13,0-.27,0-.4s0-.21,0-.31h0C544.76,420.88,527.77,432.19,520.05,437.32Z" style="fill:#263238"></path><path d="M511.85,417.69h39.32s-7.92-91.82-7.61-93.43c.39-2.05,2.72-11.34,5.8-23.49,1-3.8,2-7.87,3.1-12.1,2.93-11.42,6.17-23.9,9-34.77L569,225H535.64s-3.88,12.31-8.77,28.33c-8,26-18.63,61.85-19.68,70.56C505.48,337.93,511.85,417.69,511.85,417.69Z" style="fill:#263238"></path><path d="M513.74,411c6-.12,4.28-.17,10.29-.23,2.93,0,22.25-.19,25,.26a.06.06,0,0,1,0,.12c-2.74.46-22.06.29-25,.26-6-.06-4.28-.11-10.29-.23C513.63,411.16,513.63,411,513.74,411Z" style="fill:#37474f"></path><path d="M536.31,318.65c1.29-5.68,3.22-11.25,4.89-16.83q5.12-17,10.29-34,2.58-8.49,5.18-17,1.32-4.29,2.65-8.57c.88-2.79,1.87-5.56,2.66-8.37.32-1.15.5-.52.09.94-.83,2.93-1.65,5.87-2.5,8.79Q557,252.33,554.45,261q-5.1,17.28-10.31,34.53-2.6,8.65-5.2,17.3a70.77,70.77,0,0,0-2.13,8.37,38.85,38.85,0,0,0-.35,8.95c.38,6,1.08,12,1.63,18s1.12,12,1.67,18q1.66,18,3.3,35.91c.13,1.52.27,3,.38,4.55,0,.51-.73.47-.78,0-1.3-11.83-2.29-23.7-3.4-35.55s-2.21-23.59-3.31-35.39c-.28-3-.59-5.92-.6-8.9A36.94,36.94,0,0,1,536.31,318.65Z" style="fill:#37474f"></path><path d="M539.57,225c2.32,17.9,6.73,51.45,9.94,75.79C557,271.28,569.11,225,569.11,225Z" style="fill:#37474f"></path><path d="M531.39,437.86c1.91.63,56.5.12,58.57-1.22.79-.5,1.18-8.46,1.38-18.09v-.3c0-2,.08-4,.09-6.1,0-.28,0-.57,0-.85.13-13.9-.87-28.32-.87-28.32l-35.69.23,1,28.06,0,1.11.2,5.81,0,.59s-20.81,9.54-22.93,11.26S529.48,437.25,531.39,437.86Z" style="fill:#ad6359"></path><path d="M531.39,437.86c1.91.63,56.5.12,58.57-1.22.79-.5,1.18-8.46,1.38-18.09v-.3c0-2,.08-4,.09-6.1,0-.28,0-.57,0-.85l-35.56,0,0,1.11.2,5.81,0,.59s-20.81,9.54-22.93,11.26S529.48,437.25,531.39,437.86Z" style="fill:#ebebeb"></path><path d="M531.39,437.86c1.91.63,56.5.12,58.57-1.22.79-.5,1.18-8.46,1.38-18.09v-.3l-35.22-.06,0,.59s-20.81,9.54-22.93,11.26S529.48,437.25,531.39,437.86Z" style="fill:#FF6677"></path><path d="M532,435.74c9.2-.31,46.34-.7,55.45-.31.08,0,.08.05,0,.06-9.11.51-46.25.59-55.45.4C531.8,435.89,531.79,435.75,532,435.74Z" style="fill:#263238"></path><path d="M552.2,418.32c3.61-.71,8-.19,10.84,2.36.1.1,0,.25-.16.22a50.22,50.22,0,0,0-10.66-2.12A.23.23,0,0,1,552.2,418.32Z" style="fill:#263238"></path><path d="M549.6,419.92c3.61-.71,8-.19,10.84,2.36.11.1,0,.25-.15.22a50.43,50.43,0,0,0-10.67-2.12A.23.23,0,0,1,549.6,419.92Z" style="fill:#263238"></path><path d="M547,421.52c3.61-.71,8-.19,10.84,2.36.11.1,0,.25-.15.22A50.43,50.43,0,0,0,547,422,.23.23,0,0,1,547,421.52Z" style="fill:#263238"></path><path d="M536.45,225s.76,15.94,4.41,28.57c.3,1,.61,2.07,1,3.06a59,59,0,0,1,9.6,4.93s.38,12.83.77,27.13c.42,16,.87,33.83.77,37.61-.33,14.16,1.77,92,1.77,92l39.31.16s-7.11-86.92-7.06-92.1c.08-8.34-1.9-45.17-3.43-72-.93-16.55-1.7-29.31-1.7-29.31Z" style="fill:#263238"></path><path d="M556.5,411.28c6-.1,4.28-.16,10.29-.19,2.94,0,22.25-.1,25,.36a.06.06,0,0,1,0,.12c-2.75.45-22.06.2-25,.16-6-.09-4.28-.13-10.29-.28A.09.09,0,0,1,556.5,411.28Z" style="fill:#37474f"></path><path d="M579,230.68c.72,21.93,1.49,43.86,2.47,65.78s2.31,44,4.15,65.92c1,12.26,2,29.51,3.32,41.74,0,.08-.12.11-.13,0-2.86-21.75-4.45-48.65-5.86-70.54s-2.36-43.81-3.11-65.73c-.42-12.4-.74-24.81-1.12-37.21C578.69,230.49,579,230.5,579,230.68Z" style="fill:#37474f"></path><path d="M540.6,255.66a71.94,71.94,0,0,1,11.24,5.88.13.13,0,0,1-.12.23c-3.79-1.84-7.66-3.61-11.35-5.66A.25.25,0,0,1,540.6,255.66Z" style="fill:#37474f"></path><path d="M538.33,236.79c.34,1.83.78,3.64,1.18,5.46s.64,3.44,1.09,5.13a8.76,8.76,0,0,0,2.39,4.29c.67.63,1.41,1.18,2.12,1.75l1.2.91c0-.24-.09-.49-.14-.74-.12-.69-.24-1.38-.35-2.08-.26-1.54-.51-3.08-.74-4.62-.47-3-.89-6.1-1.53-9.1a.1.1,0,0,1,.19,0c.76,3,1.59,5.92,2.25,8.92.32,1.47,1.47,8.74,1.53,9.25s.09,1.07.11,1.6a6.35,6.35,0,0,1,0,1.63.13.13,0,0,1-.24,0h0a6.11,6.11,0,0,1-.46-1.58c-.14-.52-.25-1-.35-1.57,0-.19-.06-.39-.08-.58-.72-.44-1.39-1-2.06-1.5s-1.45-1-2.13-1.6a8.12,8.12,0,0,1-2.61-4.08,29.77,29.77,0,0,1-.86-5.22c-.23-2.07-.4-4.14-.69-6.2C538.13,236.72,538.31,236.67,538.33,236.79Z" style="fill:#37474f"></path><path d="M551.35,178.31c-1.77,6.89-8.81,22.62-20.64,35.6-4.57,5-40.75,10.31-44.57,9.22-2.68-.77-10.52-23.91-8-25.85,4.79-3.65,38.73.59,40.07-.29,2.06-1.35,15.49-12.28,23.86-22.25C548.22,167.47,554.29,166.84,551.35,178.31Z" style="fill:#ad6359"></path><path d="M543.62,198.91l-21.88-6.43s17.43-18,24-21.9c7.45-4.34,8,.42,6,8.37S543.62,198.91,543.62,198.91Z" style="fill:#FF6677"></path><path d="M526,189.5c.79.1,7.64,2,9.12,2.44s7.55,2.21,9,2.79a.06.06,0,0,1,0,.11c-1.57-.29-7.69-2.05-9.21-2.47s-8.25-2.45-9-2.77C525.86,189.57,525.9,189.49,526,189.5Z" style="fill:#263238"></path><path d="M535.18,196.42l8.44,2.48s6.16-12,8.19-20c1.48-5.81,1.56-9.92-1.41-10Z" style="fill:#263238"></path><path d="M585.5,240.83l-56.74-.27c0,1.12,12.31-63.42,18.24-71.15,1.27-1.66,9.94-3.75,13.85-.1C578,185.27,585.5,241.55,585.5,240.83Z" style="fill:#FF6677"></path><polygon points="541.44 187.08 548.69 187.58 548.25 197.15 543.27 198.47 540.42 196.21 541.44 187.08" style="opacity:0.1"></polygon><path d="M550.8,177.16c2.7.65,6.69-4.47,8.64-8.33.13-.26-.36-3-.8-6.32-.25-2-.49-4.28-.56-6.36,0-.43-12.93,3.6-12.93,3.6a32.88,32.88,0,0,1,1.52,7.94,4,4,0,0,1-.06.86s0,.08,0,.14C546.39,170.32,547.91,176.46,550.8,177.16Z" style="fill:#ad6359"></path><path d="M546.61,168.55s0,.09,0,.14a8.41,8.41,0,0,0,1.34,0c7.66-.42,9.37-10.09,9.68-12.54-2.31.41-12.47,3.58-12.47,3.58a33.2,33.2,0,0,1,1.53,7.94A4.68,4.68,0,0,1,546.61,168.55Z" style="fill:#263238"></path><path d="M560.5,140.56c1.1,4.71-2.23,17.88-5.71,20.63-5,4-12.86,3.88-16.14-2.08-3.18-5.78,1.46-22.86,5.31-25.32C549.62,130.17,558.87,133.61,560.5,140.56Z" style="fill:#ad6359"></path><path d="M547.28,147.67s.06.06.05.1c-.25.88-.38,1.93.35,2.42,0,0,0,.06,0,.05C546.71,149.86,546.91,148.47,547.28,147.67Z" style="fill:#263238"></path><path d="M548.31,146.94c1.45.25.85,3.14-.49,2.91S547.09,146.74,548.31,146.94Z" style="fill:#263238"></path><path d="M542.46,146.75s-.08,0-.09.06c-.16.91-.49,1.91-1.36,2,0,0,0,.05,0,.05C542,149,542.45,147.63,542.46,146.75Z" style="fill:#263238"></path><path d="M541.85,145.65c-1.42-.41-2.13,2.46-.81,2.83S543,146,541.85,145.65Z" style="fill:#263238"></path><path d="M549.72,145.86a11.06,11.06,0,0,1-1-.63,2,2,0,0,1-.94-.84.64.64,0,0,1,.25-.72,1.59,1.59,0,0,1,1.57.16,2.25,2.25,0,0,1,1.08,1.23A.67.67,0,0,1,549.72,145.86Z" style="fill:#263238"></path><path d="M541,144a9.71,9.71,0,0,0,1.21-.06,2,2,0,0,0,1.23-.3.62.62,0,0,0,.11-.75,1.55,1.55,0,0,0-1.45-.6,2.32,2.32,0,0,0-1.53.57A.67.67,0,0,0,541,144Z" style="fill:#263238"></path><path d="M546.66,156.16c-.26.16-.53.41-.86.37a2.43,2.43,0,0,1-.92-.43s-.06,0,0,0a1.23,1.23,0,0,0,1,.72,1,1,0,0,0,.87-.64A.05.05,0,0,0,546.66,156.16Z" style="fill:#263238"></path><path d="M546.27,153.28a3.1,3.1,0,0,1-2.32.94,3.78,3.78,0,0,1-1.1-.18,1.29,1.29,0,0,1-.21-.06l-.19-.08a.22.22,0,0,1-.14-.23h0a.29.29,0,0,1,0-.09h0l0-.07c.13-.7.41-1.73.41-1.73-.28.07-1.68.38-1.59,0a47.53,47.53,0,0,1,3.09-9,.09.09,0,0,1,.16.06c-.65,2.86-1.8,5.59-2.5,8.45a5.55,5.55,0,0,1,1.53-.14c.09.05-.58,2-.62,2.31v0a4.29,4.29,0,0,0,3.36-.33C546.28,153.15,546.34,153.22,546.27,153.28Z" style="fill:#263238"></path><path d="M543.33,153.78a3.7,3.7,0,0,0,1.21,1.42,1.72,1.72,0,0,0,1,.27c.75-.05.91-.7.89-1.29a4,4,0,0,0-.14-.92A4.81,4.81,0,0,1,543.33,153.78Z" style="fill:#263238"></path><path d="M544.54,155.2a1.72,1.72,0,0,0,1,.27c.75-.05.91-.7.89-1.29A1.73,1.73,0,0,0,544.54,155.2Z" style="fill:#ff98b9"></path><path d="M541.14,137.79c.73-1,1.53-2.07,2.26-2.15s.84,1.67,2.37,2.1c2.07.57,3.49-1.15,6.47-.75,4.28.57,5.42,4.48,4.29,10.49-1,5.37,2.13,6.53,2.13,6.53s4.37-11.39,1.85-16-9.8-7.88-15.69-5.2C542.67,133.8,541.14,137.79,541.14,137.79Z" style="fill:#263238"></path><path d="M556.39,151.35s3.38-4,5.24-2.8-.94,7.29-3.31,7.94a2.34,2.34,0,0,1-3-1.52Z" style="fill:#ad6359"></path><path d="M560.78,150.27a0,0,0,0,1,0,.06,5.94,5.94,0,0,0-3.37,3.42,1.3,1.3,0,0,1,2-.18s0,.09,0,.08a1.43,1.43,0,0,0-1.62.36,6.87,6.87,0,0,0-.87,1.21c-.09.14-.34,0-.27-.12l0,0C556.72,153,558.57,150.28,560.78,150.27Z" style="fill:#263238"></path><path d="M542,135.2c1.3-.06,8.2,1.49,11.06,3.44s7.52,7.51,7.76,7.8,3.89-10.87-5-14.76C546.2,127.44,542,135.2,542,135.2Z" style="fill:#FF6677"></path><path d="M560.41,145.87s-4.56-9.28-7.61-11.79-10.48-5-15.6-3.88c-4,.91,4.07,7.39,4.07,7.39a2.6,2.6,0,0,1,1.77-1.5c2.48-.47,6.71,1.08,9,2.4C555,140.15,560.41,145.87,560.41,145.87Z" style="fill:#FF6677"></path><path d="M560.41,145.87s-4.56-9.28-7.61-11.79-10.48-5-15.6-3.88c-4,.91,4.07,7.39,4.07,7.39a2.6,2.6,0,0,1,1.77-1.5c2.48-.47,6.71,1.08,9,2.4C555,140.15,560.41,145.87,560.41,145.87Z" style="opacity:0.2"></path><rect x="542.92" y="206.16" width="44.75" height="49.56" style="fill:#FF6677"></rect><rect x="542.92" y="206.16" width="44.75" height="49.56" style="opacity:0.1"></rect><rect x="519.81" y="206.16" width="23.11" height="49.56" transform="translate(1062.72 461.88) rotate(180)" style="fill:#FF6677"></rect><rect x="519.81" y="206.16" width="23.11" height="49.56" transform="translate(1062.72 461.88) rotate(180)" style="opacity:0.32"></rect><polygon points="561.5 216.87 562.44 216.87 563.15 216.87 563.56 216.04 564.13 216.87 564.9 215.17 565.63 216.87 567.73 216.87 568.69 216.87 569.03 215.74 569.36 216.87 569.98 216.87 569.98 206.16 561.5 206.16 561.5 216.87" style="fill:#fff"></polygon><path d="M521.4,252.3q2.57-5.28,5.09-10.6l5-10.66,5-10.71q2.46-5.36,4.87-10.76-2.57,5.3-5.08,10.61l-5,10.66-5,10.71Q523.81,246.91,521.4,252.3Z" style="fill:#FF6677"></path><path d="M521.4,209.57q2.42,5.4,4.87,10.76l5,10.71,5,10.66q2.52,5.33,5.08,10.6-2.4-5.38-4.87-10.76l-5-10.7-5-10.66Q524,214.86,521.4,209.57Z" style="fill:#FF6677"></path><path d="M571.17,173.55c10.92,8.21,32.1,26.61,34,36.56,2.43,13.06-8.69,38.75-13.44,43.71-3.2,3.35-17.3-9-18.15-12s10.61-23.87,10.7-26.26-14.56-24.26-20.92-34C555.3,169.31,561.93,166.59,571.17,173.55Z" style="fill:#ad6359"></path><path d="M567.92,243.54c1-1.16.4-1.69-2.27-1.17s-12.76,4.83-14,1.18,13.12-9.53,17.62-10.05a72.84,72.84,0,0,1,12,.2C578.72,235.41,572.9,240.13,567.92,243.54Z" style="fill:#ad6359"></path><path d="M593,252.16c-4.52,7.54-17.63,12.29-27.41,12.47a4.83,4.83,0,0,1-3-.9c-4.38.16-5.77-1.86-5.77-1.86-4.13-1.11-5.26-3.37-5.26-3.37s-5.15.13-5.75-3c-.67-3.48,6.69-3,10.9-5.18,9.66-5.05,22-14.92,24.61-16.66Z" style="fill:#ad6359"></path><path d="M570.51,252.18a48.89,48.89,0,0,1-18.92,6.22.09.09,0,0,0,0,.17,37,37,0,0,0,19-6.26C570.7,252.22,570.65,252.11,570.51,252.18Z" style="fill:#263238"></path><path d="M574.4,257.56c-2.87,1.24-7.93,3.38-17.63,4.2,0,0,0,.06,0,.06a33.23,33.23,0,0,0,17.69-4.12C574.63,257.61,574.59,257.48,574.4,257.56Z" style="fill:#263238"></path><path d="M576.44,260.5a52.38,52.38,0,0,1-13.87,3.2s0,.06,0,.06c6.38-.15,8.67-.92,14-3.1C576.71,260.58,576.63,260.42,576.44,260.5Z" style="fill:#263238"></path><path d="M571.79,197.83l20.72-9.53s-19.86-15.32-27-18.18c-8-3.22-7.9,1.58-4.75,9.15S571.79,197.83,571.79,197.83Z" style="fill:#FF6677"></path><path d="M587.9,186c-.77.22-7.27,3.09-8.67,3.74s-7.15,3.27-8.54,4.07c-.06,0,0,.13,0,.1,1.51-.51,7.32-3.14,8.76-3.78s7.81-3.61,8.46-4C588,186,588,185.94,587.9,186Z" style="fill:#263238"></path><path d="M573.42,197.06c-.64.24-1.63.66-1.63.66-1.53-2.8-3.36-5.46-5-8.18s-3.44-5.5-5.15-8.25a0,0,0,0,0-.07,0c.88,1.62,1.75,3.23,2.64,4.84l-.44-.54c-.52-.65-1.06-1.28-1.55-1.94,0-.05-.13,0-.09.06a20.76,20.76,0,0,0,1.42,2.05c.38.45.78.88,1.19,1.3.51.91,1,1.83,1.56,2.74,1.65,2.78,3.28,6,5.14,8.63,0,0,1.41-.8,2.08-1.28C573.59,197.14,573.52,197,573.42,197.06Z" style="fill:#263238"></path><polygon points="515.67 228.06 481.59 230.87 470.15 184.26 504.23 181.45 515.67 228.06" style="fill:#37474f"></polygon><polygon points="496.08 184.93 479.93 186.25 478.67 181.1 494.83 179.79 496.08 184.93" style="fill:#a6a6a6"></polygon><polygon points="491.16 180.09 489.17 180.25 488.59 177.88 483.75 178.27 484.33 180.65 482.35 180.81 481.29 176.49 490.13 175.77 491.16 180.09" style="fill:#a6a6a6"></polygon><path d="M465.16,205.45a3.71,3.71,0,0,0,2.88,3.38s-2.78,2.27-2,5.15c.4,1.48,3.12,2.14,3.12,2.14a4.42,4.42,0,0,0-1.29,4.43c.68,2,3.31,2.36,3.31,2.36s-1.21,2.8.14,4.62c2.74,3.69,20.47-.32,21.73-7.47.59-3.34-3.69-2.12-3.69-2.12s5.73-3.23,5-6.91-6.2-1.76-6.2-1.76,5.53-3.18,4.38-6.92-6.33-1-6.33-1,3.34-3.56,1.81-6.22c-2.53-4.39-10.14,3.55-14.24,3.51l-1.61-6.08S464.82,202.23,465.16,205.45Z" style="fill:#ad6359"></path><path d="M471.59,223a0,0,0,1,0,0,.09,31.48,31.48,0,0,0,18-5.22c.16-.12,0-.44-.16-.34A64.92,64.92,0,0,1,471.59,223Z" style="fill:#263238"></path><path d="M469.09,216.17c-.07,0,0,.13,0,.13a29.54,29.54,0,0,0,19.31-6.92c.18-.16.18-.5,0-.32C484.57,212,474.92,215.37,469.09,216.17Z" style="fill:#263238"></path><path d="M486.51,200.84c-5.33,4.39-11.52,6.62-18.21,8-.09,0-.05.13,0,.14,3.46.21,7.63-1.11,10.79-2.42a18.2,18.2,0,0,0,7.55-5.54C486.74,200.93,486.62,200.75,486.51,200.84Z" style="fill:#263238"></path><path d="M545.56,170.9a17.32,17.32,0,0,0,.83,2.94,17.55,17.55,0,0,0,1.28,2.74,8.34,8.34,0,0,0,1.83,2.27,2.79,2.79,0,0,0,1.19.57,2.74,2.74,0,0,0,1.27-.28,13.12,13.12,0,0,0,4.59-3.7c.33-.38.64-.78,1-1.17s.6-.83.89-1.25.57-.84.85-1.27.53-.87.81-1.3a24,24,0,0,1-3,5.4,12.16,12.16,0,0,1-4.78,4.05,3.47,3.47,0,0,1-1.71.3,3.2,3.2,0,0,1-1.54-.76,7.71,7.71,0,0,1-1.89-2.57A14.64,14.64,0,0,1,545.56,170.9Z" style="fill:#263238"></path></g></svg>