<svg xmlns="http://www.w3.org/2000/svg" xmlns:xlink="http://www.w3.org/1999/xlink" viewBox="0 0 750 500" xmlns:v="https://vecta.io/nano"><style><![CDATA[.B{fill:#ffc727}.C{fill:#263238}.D{opacity:.1}.E{fill:#ad6359}.F{fill:#fff}.G{fill:#ebebeb}.H{fill:#37474f}.I{opacity:.32}.J{fill:#c7c7c7}]]></style><ellipse cx="388.38" cy="433.07" rx="327.88" ry="17.89" class="G"/><path d="M29.4 399.61l85.86-.24 85.85-.09 171.72-.16 171.72.16 85.85.09 85.86.24-85.86.25-85.85.09-171.72.16-171.72-.17-85.85-.08-85.86-.25z" class="C"/><path d="M147.18 399.6s-1.84-8.6-5.52-9.93-5.92 2.54-5.92 2.54-.87-8.22-6.09-10.68-9.13 2.58-9.13 2.58-4-10.42-11.16-10.42-10.76 15.25-10.76 15.25-4.22-4.55-8.55-2-4.33 12.64-4.33 12.64z" fill="#455a64"/><path d="M283.6 399.6h-64.69s2.13-9.12 6.42-9.77 6.29 3.59 6.29 3.59-.2-12.72 7.81-14.89 14.73 9.07 14.73 9.07 5-6.41 11.87-6 8.58 11 8.58 11 6.24-3.68 8.99 7zm-189.05 0h-34s.08-5.07 3.42-6.42a4.57 4.57 0 0 1 5.34 1.28s1.37-9.32 7.6-9.32 9.23 8 9.23 8a4.77 4.77 0 0 1 4.86-2c3.41.52 3.55 8.46 3.55 8.46z" class="H"/><path d="M369.3,190.62l8.37,185.8H530L514.23,301l-50.76-16a9.52,9.52,0,0,1-5.76-5.66l-30.35-77.94Z" class="B"/><path d="M386.08 210.18l3.8 67.03 54.97 5.15-23.69-69.73-35.08-2.45z" fill="#455a64"/><path d="M388.16 246.9l.87 15.29 16.48 16.48 15.91 1.5-33.26-33.27zm9.16-35.93l35.25 35.25-3.7-10.93-23.79-23.79-7.76-.53zm-10.79 7.09l.1 1.85 56.05 56.05-.91-2.66-55.24-55.24zm2.82 49.77l.1 1.86 8.25 8.25 1.94.18-10.29-10.29z" opacity=".3" class="F"/><path d="M386.08 210.18l35.08 2.45 23.69 69.73-3.68-.35-22.39-65.92-32.53-2.97-.17-2.94zm74.57 76.48h1v86.93h-1z" class="C"/><path d="M520.93 301.2l-12.39-2 7.22 25.51 6.38-.67a2.63 2.63 0 0 0 2.35-2.82l-1.35-17.66a2.66 2.66 0 0 0-2.21-2.36z" class="F"/><use xlink:href="#B" class="B"/><use xlink:href="#B" class="D"/><path d="M411.81 296.78h-18.87v-5.3l18.87 1.03v4.27z" class="D"/><path d="M373.46 376.42H60.33L76.9 153.13l285.28-15.14 11.28 238.43z" class="B"/><path d="M126.62 313a2 2 0 0 1 2.65-.26 9.68 9.68 0 0 0 6.42 2.76 8.81 8.81 0 0 0 4.68-1.32 4.28 4.28 0 0 0 2-2.58 1.87 1.87 0 0 0-.11-1.15 2.69 2.69 0 0 0-.92-1.06 12.06 12.06 0 0 0-4.64-1.74h-.08a17.63 17.63 0 0 1-4.35-1.4 6 6 0 0 1-2.87-2.8 5.06 5.06 0 0 1-.29-2.91 8.21 8.21 0 0 1 3.83-5.23 12 12 0 0 1 6.52-1.92c3.47 0 5.68 1.7 7.3 2.88a1.73 1.73 0 0 1 .07 2.54 1.92 1.92 0 0 1-2.61.52c-1.63-1.18-3.21-2.29-5.39-2.25a7.67 7.67 0 0 0-4.27 1.18 3.77 3.77 0 0 0-1.77 2.28 1.5 1.5 0 0 0 .11 1 2.38 2.38 0 0 0 .78.92 10.59 10.59 0 0 0 4.23 1.58h.09a17.14 17.14 0 0 1 4.71 1.51 6.52 6.52 0 0 1 3 3 5.2 5.2 0 0 1 .29 3.1 8.75 8.75 0 0 1-4 5.56 13.05 13.05 0 0 1-7 2 12.67 12.67 0 0 1-8.58-3.61 1.83 1.83 0 0 1 .2-2.6zm30.99-4.7l-1.55 8.84a2.51 2.51 0 0 1-2.39 2 1.65 1.65 0 0 1-1.66-2l3.8-21.74a2.59 2.59 0 0 1 2.43-2 1.65 1.65 0 0 1 1.66 2l-1.55 8.84h9.54l1.55-8.84a2.58 2.58 0 0 1 2.4-2 1.67 1.67 0 0 1 1.69 2l-3.83 21.74a2.55 2.55 0 0 1-2.4 2 1.67 1.67 0 0 1-1.69-2l1.55-8.84zm24.32 10.91a1.67 1.67 0 0 1-1.69-2l3.83-21.74a2.58 2.58 0 0 1 2.4-2 1.67 1.67 0 0 1 1.69 2l-3.83 21.74a2.57 2.57 0 0 1-2.4 2zm9.29-2.1l3.83-21.75a2.58 2.58 0 0 1 2.4-2H204a6.44 6.44 0 0 1 6.53 7.88 9.87 9.87 0 0 1-9.29 7.92h-4.57l-1.4 8a2.55 2.55 0 0 1-2.4 2 1.66 1.66 0 0 1-1.65-2.05zm12.12-19.68h-4.57l-1.32 7.62H202a4.79 4.79 0 0 0 4.5-3.83 3.1 3.1 0 0 0-3.16-3.79zm9.36 19.68l3.84-21.75a2.58 2.58 0 0 1 2.39-2h6.6a6.44 6.44 0 0 1 6.52 7.88 9.86 9.86 0 0 1-9.29 7.92h-4.57l-1.4 8a2.55 2.55 0 0 1-2.39 2 1.67 1.67 0 0 1-1.7-2.05zm12.13-19.68h-4.57l-1.33 7.62h4.53a4.79 4.79 0 0 0 4.5-3.83 3.09 3.09 0 0 0-3.13-3.79zm11.31 21.78a1.68 1.68 0 0 1-1.7-2l3.84-21.74a2.58 2.58 0 0 1 2.39-2 1.67 1.67 0 0 1 1.7 2l-3.83 21.74a2.57 2.57 0 0 1-2.4 2zm13.12-23.7a2.51 2.51 0 0 1 1.18-1.73 1.84 1.84 0 0 1 2.72.44l9.07 16.66 2.69-15.37a2.58 2.58 0 0 1 2.4-2 1.67 1.67 0 0 1 1.69 2l-3.83 21.63a2.49 2.49 0 0 1-2.4 2 1.66 1.66 0 0 1-1.4-.7 2 2 0 0 1-.14-.26l-9-16.51-2.72 15.44a2.5 2.5 0 0 1-2.4 2 1.64 1.64 0 0 1-1.66-2zm25.2 10.72a16.24 16.24 0 0 1 15.48-12.89 11.22 11.22 0 0 1 7.71 2.8 2 2 0 0 1-.15 2.83 2.12 2.12 0 0 1-2.91.37 8 8 0 0 0-5.38-1.95 10.86 10.86 0 0 0-6.93 2.62 10.5 10.5 0 0 0-3.72 6.22 7.29 7.29 0 0 0 1.54 6.19 7.66 7.66 0 0 0 6 2.62 10.54 10.54 0 0 0 5.16-1.4l.88-4.9H287a1.65 1.65 0 0 1-1.66-2 2.49 2.49 0 0 1 2.4-2h7.11a1.66 1.66 0 0 1 1.7 2l-1.4 8a3.08 3.08 0 0 1-.19.56l-.11.22h0a2.32 2.32 0 0 1-.77.85 15.63 15.63 0 0 1-8.66 2.8h0c-7.27-.08-12.21-5.79-10.96-12.94z" class="C"/><path d="M311.36 223l-42-35.53L114.61 200l9.39 89.21 149.14-19.59zm-17.84.6a7 7 0 1 1-8.54-5.24 7.09 7.09 0 0 1 8.54 5.23z" class="F"/><g class="C"><path d="M139.2 260.36l-4-33a3.09 3.09 0 0 1 2.71-3.45h.16l18.15-2.19a3.13 3.13 0 0 1 .75 6.21l-15.18 1.84L143 240l13.05-1.58a3.133 3.133 0 0 1 .75 6.22l-13.05 1.57 1.62 13.44a3.13 3.13 0 0 1-2.76 3.46 3.09 3.09 0 0 1-3.41-2.75zm59.62-8.79a3.12 3.12 0 0 1-1.49 4.16 5.22 5.22 0 0 1-1.21.32h-.06a4.08 4.08 0 0 1-2.26-.35 5.5 5.5 0 0 1-2-1.74 15 15 0 0 1-2-6.58 4.79 4.79 0 0 0-1-2.33 5.36 5.36 0 0 0-1.87-1.42 11.08 11.08 0 0 0-3.3-1l-6.61.8 1.47 12.16a3.15 3.15 0 0 1-2.77 3.46 3.1 3.1 0 0 1-3.45-2.71l-4-33.05a3.06 3.06 0 0 1 2.71-3.45h.06l10-1.2A12.07 12.07 0 0 1 191.21 239a8.84 8.84 0 0 1 2.22 1.83 10.68 10.68 0 0 1 2.57 5.83 14.18 14.18 0 0 0 .63 3.27 3.06 3.06 0 0 1 2.19 1.64zM188.26 230a5.82 5.82 0 0 0-6.47-5.12l-6.89.83 1.39 11.54 6.89-.84a5.79 5.79 0 0 0 5.08-6.41zm19.82 22.05l-4-33.05a3.06 3.06 0 0 1 2.7-3.45h.22l18.15-2.19a3.13 3.13 0 0 1 3.45 2.71 3.17 3.17 0 0 1-2.7 3.5l-15.18 1.84 1.24 10.25 13.04-1.6a3.133 3.133 0 0 1 .75 6.22l-13.05 1.57 1.24 10.31 15.18-1.84a3.133 3.133 0 0 1 .75 6.22l-18.14 2.19h-.12l-.05.06a3.08 3.08 0 0 1-3.48-2.74zm33.2-4.05l-4-33a3.06 3.06 0 0 1 2.71-3.45h.17l18.14-2.19a3.13 3.13 0 0 1 3.46 2.71 3.18 3.18 0 0 1-2.71 3.5l-15.17 1.84 1.23 10.25 13.05-1.58a3.133 3.133 0 0 1 .75 6.22l-13 1.57 1.24 10.31 15.18-1.84a3.133 3.133 0 0 1 .75 6.22l-18.15 2.19h-.12l-.05.06a3.1 3.1 0 0 1-3.48-2.81zm47.88-24.62a66.08 66.08 0 0 1 8.56 0 85.21 85.21 0 0 1 8.57.88 75.7 75.7 0 0 1 16.82 4.55 53.82 53.82 0 0 1 8 4.07c1.29.78 2.52 1.68 3.74 2.59l1.77 1.48 1.68 1.59a33.26 33.26 0 0 1 5.67 7.5l1.07 2.13.87 2.23a23.23 23.23 0 0 1 .71 2.24l.32 1.12.24 1.14a33.78 33.78 0 0 1 .75 9.36 35.24 35.24 0 0 1-1.86 9.18 43.29 43.29 0 0 1-9.55 15.39 59.05 59.05 0 0 1-13.89 10.79 55.11 55.11 0 0 1-16.14 6.2l-.23-.75a74.29 74.29 0 0 0 14.2-8.72A68.12 68.12 0 0 0 332.07 285a42 42 0 0 0 7.42-13.69 29.18 29.18 0 0 0 .66-14.92l-.18-.93-.26-.91a16.59 16.59 0 0 0-.55-1.81l-.65-1.73-.79-1.68a29.16 29.16 0 0 0-4.31-6.13 46.09 46.09 0 0 0-12.64-9.36 95.85 95.85 0 0 0-15.26-6.23 154.12 154.12 0 0 0-16.35-4.23z"/><path d="M313.73 292.59l-6.44 12.59 13.03 5.5-19.41-3.18 12.82-14.91z"/></g><path d="M373.46 376.41H60.33l.89-11.98 310.76-19.51 1.48 31.49z" class="D"/><path d="M58.75 386.46h478.23v-14.23h0H58.75v14.23z" class="G"/><path d="M546.93 365.39l-47.7 2.93h0v20.3h51.26 0l-3.56-23.23zM79.34 388.62v-19.87l-30.1-3.11-3.7 22.98h33.8z" fill="#dbdbdb"/><path d="M116.12 391.48l-9.9-1.45c1.89-12.87 13.17-37.22 42.38-37.22s40.27 24.39 42 37.28l-9.91 1.34 5-.67-5 .68c-.16-1.17-4.36-28.63-32.1-28.63-27.95 0-32.3 27.5-32.47 28.67z" class="J"/><path d="M148.41 358.88c-46.63 0-46.7 72.47 0 72.47s46.71-72.47 0-72.47z" class="C"/><path d="M148.41 378.67c-21.16 0-21.2 32.89 0 32.89s21.2-32.89 0-32.89zm247.03 12.83l-9.89-1.5c1.88-12.87 13.16-37.22 42.38-37.22s40.26 24.39 42 37.28l-9.93 1.37 5-.67-5 .68c-.17-1.17-4.37-28.63-32.1-28.63s-32.28 27.52-32.46 28.69z" class="J"/><path d="M427.91 358.88c-46.63 0-46.7 72.47 0 72.47s46.71-72.47 0-72.47z" class="C"/><path d="M427.91 378.67c-21.16 0-21.2 32.89 0 32.89s21.2-32.89 0-32.89z" class="J"/><path d="M575.16 378.25h52.73v58.4h-52.73z" class="B"/><path d="M575.16 378.25h52.73v58.4h-52.73z" class="D"/><path d="M575.16 436.65h-27.23v-58.4h27.23z" class="B"/><path d="M575.16 436.65h-27.23v-58.4h27.23z" class="I"/><path d="M597.05 390.87h1.12.84l.48-.97.67.97.91-2 .86 2h2.47 1.12l.41-1.33.39 1.33h.73v-12.62h-10v12.62z" class="F"/><g class="B"><path d="M549.81 432.63q3-6.24 6-12.5l5.91-12.56 5.82-12.57q2.91-6.31 5.74-12.68-3 6.24-6 12.5l-5.91 12.56-5.82 12.62q-2.89 6.27-5.74 12.63z"/><path d="M549.81 382.27q2.84 6.36 5.74 12.68l5.83 12.62 5.91 12.56q3 6.27 6 12.5-2.84-6.36-5.74-12.68l-5.83-12.62-5.91-12.56q-2.98-6.27-6-12.5zm49.76-62.42h52.73v58.4h-52.73z"/></g><path d="M599.57 319.85h52.73v58.4h-52.73z" class="D"/><path d="M599.58 378.26h-27.23v-58.4h27.23z" class="B"/><path d="M599.58 378.26h-27.23v-58.4h27.23z" class="I"/><path d="M621.47 332.47h1.11.84l.48-.97.67.97.91-2 .86 2h2.47 1.13l.41-1.33.38 1.33h.73v-12.62h-9.99v12.62z" class="F"/><g class="B"><path d="M574.22 374.23q3-6.23 6-12.5l5.91-12.56 5.87-12.61q2.91-6.33 5.75-12.68-3 6.22-6 12.49l-5.91 12.56-5.84 12.62q-2.94 6.32-5.78 12.68z"/><path d="M574.22 323.88q2.85 6.36 5.74 12.68l5.83 12.61 5.91 12.56q3 6.27 6 12.5-2.85-6.36-5.75-12.68l-5.83-12.62-5.91-12.56q-2.95-6.27-5.99-12.49zm68.69 54.37h52.73v58.4h-52.73z"/></g><path d="M642.91 378.25h52.73v58.4h-52.73z" class="D"/><path d="M642.91 436.65h-27.23v-58.4h27.23z" class="B"/><path d="M642.91 436.65h-27.23v-58.4h27.23z" class="I"/><path d="M664.8 390.87h1.12.84l.48-.97.67.97.91-2 .86 2h2.47 1.13l.4-1.33.39 1.33h.73v-12.62h-10v12.62z" class="F"/><g class="B"><path d="M617.56 432.63q3-6.24 6-12.5l5.91-12.56 5.82-12.57q2.91-6.31 5.74-12.68-3 6.24-6 12.5l-5.91 12.56L623.3 420q-2.89 6.27-5.74 12.63z"/><path d="M617.56 382.27q2.84 6.36 5.74 12.68l5.83 12.62 5.87 12.56q3 6.27 6 12.5-2.84-6.36-5.74-12.68l-5.83-12.62-5.91-12.56q-2.94-6.27-5.96-12.5z"/></g><path d="M489.74 437.34c1.92.61 56.51-.09 58.57-1.44.79-.5 1.15-8.46 1.31-18.09v-.3l.07-6.1v-.86l-2.65-28.32-36.52.37 3.6 28v1.11l.22 5.81v.6s-20.78 9.61-22.89 11.34-3.62 7.27-1.71 7.88z" class="E"/><path d="M489.74 437.34c1.92.61 56.51-.09 58.57-1.44.79-.5 1.15-8.46 1.31-18.09v-.3l.07-6.1v-.86l-35.57.1v1.11l.22 5.81v.6s-20.78 9.61-22.89 11.34-3.62 7.22-1.71 7.83z" class="G"/><path d="M489.74 437.33c1 .32 15.81.29 30.31 0l8.58-.2c10.33-.28 18.88-.71 19.67-1.22s1.14-8.24 1.3-17.69v-.4-.31h0l-35.18.07v.6s-20.77 9.61-22.88 11.33-3.72 7.21-1.8 7.82z" class="B"/><g class="C"><path d="M490.33 435.21c9.2-.34 46.34-.87 55.46-.51.07 0 .07.05 0 .06-9.11.54-46.25.76-55.46.6-.19 0-.19-.14 0-.15zm20.15-17.49c3.61-.72 8-.22 10.85 2.32.1.1 0 .25-.16.22a50.87 50.87 0 0 0-10.67-2.08.23.23 0 0 1-.02-.46zm-2.6 1.61c3.62-.72 8-.22 10.85 2.32.11.1 0 .25-.15.22a51 51 0 0 0-10.68-2.08.23.23 0 0 1-.02-.46zm-2.59 1.61c3.61-.72 8.05-.22 10.85 2.32.11.1 0 .25-.15.21a51.59 51.59 0 0 0-10.68-2.07.23.23 0 0 1-.02-.46z"/><path d="M520.05 437.32l8.58-.2c10.33-.28 18.88-.71 19.67-1.22s1.14-8.24 1.3-17.69v-.4-.31h0c-4.84 3.38-21.83 14.69-29.55 19.82z"/><path d="M511.85 417.69h39.32l-7.61-93.43c.39-2.05 2.72-11.34 5.8-23.49l3.1-12.1 9-34.77L569 225h-33.36l-8.77 28.33c-8 26-18.63 61.85-19.68 70.56-1.71 14.04 4.66 93.8 4.66 93.8z"/></g><g class="H"><path d="M513.74 411c6-.12 4.28-.17 10.29-.23 2.93 0 22.25-.19 25 .26a.06.06 0 0 1 0 .12c-2.74.46-22.06.29-25 .26l-10.29-.23c-.11-.02-.11-.18 0-.18zm22.57-92.35c1.29-5.68 3.22-11.25 4.89-16.83q5.12-17 10.29-34 2.58-8.49 5.18-17 1.32-4.29 2.65-8.57c.88-2.79 1.87-5.56 2.66-8.37.32-1.15.5-.52.09.94l-2.5 8.79q-2.57 8.72-5.12 17.39-5.1 17.28-10.31 34.53-2.6 8.65-5.2 17.3a70.77 70.77 0 0 0-2.13 8.37 38.85 38.85 0 0 0-.35 8.95c.38 6 1.08 12 1.63 18l1.67 18q1.66 18 3.3 35.91l.38 4.55c0 .51-.73.47-.78 0l-3.4-35.55-3.31-35.39c-.28-3-.59-5.92-.6-8.9a36.94 36.94 0 0 1 .96-8.12z"/><path d="M539.57 225l9.94 75.79 19.6-75.79z"/></g><path d="M531.39 437.86c1.91.63 56.5.12 58.57-1.22.79-.5 1.18-8.46 1.38-18.09v-.3l.09-6.1v-.85c.13-13.9-.87-28.32-.87-28.32l-35.69.23 1 28.06v1.11l.2 5.81v.59s-20.81 9.54-22.93 11.26-3.66 7.21-1.75 7.82z" class="E"/><path d="M531.39 437.86c1.91.63 56.5.12 58.57-1.22.79-.5 1.18-8.46 1.38-18.09v-.3l.09-6.1v-.85h-35.56v1.11l.2 5.81v.59s-20.81 9.54-22.93 11.26-3.66 7.18-1.75 7.79z" class="G"/><path d="M531.39 437.86c1.91.63 56.5.12 58.57-1.22.79-.5 1.18-8.46 1.38-18.09v-.3l-35.22-.06v.59s-20.81 9.54-22.93 11.26-3.71 7.21-1.8 7.82z" class="B"/><g class="C"><path d="M532 435.74c9.2-.31 46.34-.7 55.45-.31.08 0 .08.05 0 .06-9.11.51-46.25.59-55.45.4-.2 0-.21-.14 0-.15zm20.2-17.42c3.61-.71 8-.19 10.84 2.36.1.1 0 .25-.16.22a50.22 50.22 0 0 0-10.66-2.12.23.23 0 0 1-.02-.46zm-2.6 1.6c3.61-.71 8-.19 10.84 2.36.11.1 0 .25-.15.22a50.43 50.43 0 0 0-10.67-2.12.23.23 0 0 1-.02-.46zm-2.6 1.6c3.61-.71 8-.19 10.84 2.36.11.1 0 .25-.15.22A50.43 50.43 0 0 0 547 422a.24.24 0 0 1 0-.48z"/><path d="M536.45 225s.76 15.94 4.41 28.57l1 3.06a59 59 0 0 1 9.6 4.93l.77 27.13.77 37.61c-.33 14.16 1.77 92 1.77 92l39.31.16-7.06-92.1c.08-8.34-1.9-45.17-3.43-72l-1.7-29.31z"/></g><g class="H"><path d="M556.5 411.28c6-.1 4.28-.16 10.29-.19 2.94 0 22.25-.1 25 .36a.06.06 0 0 1 0 .12c-2.75.45-22.06.2-25 .16l-10.29-.28a.09.09 0 0 1 0-.17zm22.5-180.6l2.47 65.78c.98 21.92 2.31 44 4.15 65.92l3.32 41.74c0 .08-.12.11-.13 0-2.86-21.75-4.45-48.65-5.86-70.54s-2.36-43.81-3.11-65.73l-1.12-37.21c-.03-.15.28-.14.28.04zm-38.4 24.98a71.94 71.94 0 0 1 11.24 5.88.13.13 0 0 1-.12.23c-3.79-1.84-7.66-3.61-11.35-5.66a.253.253 0 0 1 .23-.45z"/><path d="M538.33 236.79l1.18 5.46 1.09 5.13a8.76 8.76 0 0 0 2.39 4.29c.67.63 1.41 1.18 2.12 1.75l1.2.91c0-.24-.09-.49-.14-.74l-.35-2.08-.74-4.62-1.53-9.1a.1.1 0 0 1 .19 0l2.25 8.92c.32 1.47 1.47 8.74 1.53 9.25l.11 1.6a6.35 6.35 0 0 1 0 1.63.13.13 0 0 1-.24 0h0a6.11 6.11 0 0 1-.46-1.58l-.35-1.57c0-.19-.06-.39-.08-.58-.72-.44-1.39-1-2.06-1.5l-2.13-1.6a8.12 8.12 0 0 1-2.61-4.08 29.77 29.77 0 0 1-.86-5.22l-.69-6.2c-.02-.14.16-.19.18-.07z"/></g><path d="M551.35 178.31c-1.77 6.89-8.81 22.62-20.64 35.6-4.57 5-40.75 10.31-44.57 9.22-2.68-.77-10.52-23.91-8-25.85 4.79-3.65 38.73.59 40.07-.29 2.06-1.35 15.49-12.28 23.86-22.25 6.15-7.27 12.22-7.9 9.28 3.57z" class="E"/><path d="M543.62 198.91l-21.88-6.43s17.43-18 24-21.9c7.45-4.34 8 .42 6 8.37s-8.12 19.96-8.12 19.96z" class="B"/><g class="C"><path d="M526 189.5c.79.1 7.64 2 9.12 2.44l9 2.79a.06.06 0 0 1 0 .11c-1.57-.29-7.69-2.05-9.21-2.47l-9-2.77c-.05-.03-.01-.11.09-.1z"/><path d="M535.18,196.42l8.44,2.48s6.16-12,8.19-20c1.48-5.81,1.56-9.92-1.41-10Z"/></g><path d="M585.5 240.83l-56.74-.27c0 1.12 12.31-63.42 18.24-71.15 1.27-1.66 9.94-3.75 13.85-.1 17.15 15.96 24.65 72.24 24.65 71.52z" class="B"/><path d="M541.44 187.08l7.25.5-.44 9.57-4.98 1.32-2.85-2.26 1.02-9.13z" class="D"/><path d="M550.8 177.16c2.7.65 6.69-4.47 8.64-8.33.13-.26-.36-3-.8-6.32-.25-2-.49-4.28-.56-6.36 0-.43-12.93 3.6-12.93 3.6a32.88 32.88 0 0 1 1.52 7.94 4 4 0 0 1-.06.86v.14c-.22 1.63 1.3 7.77 4.19 8.47z" class="E"/><path d="M546.61 168.55v.14a8.41 8.41 0 0 0 1.34 0c7.66-.42 9.37-10.09 9.68-12.54-2.31.41-12.47 3.58-12.47 3.58a33.2 33.2 0 0 1 1.53 7.94 4.68 4.68 0 0 1-.08.88z" class="C"/><path d="M560.5 140.56c1.1 4.71-2.23 17.88-5.71 20.63-5 4-12.86 3.88-16.14-2.08-3.18-5.78 1.46-22.86 5.31-25.32 5.66-3.62 14.91-.18 16.54 6.77z" class="E"/><g class="C"><path d="M547.28 147.67s.06.06.05.1c-.25.88-.38 1.93.35 2.42v.05c-.97-.38-.77-1.77-.4-2.57z"/><path d="M548.31 146.94c1.45.25.85 3.14-.49 2.91s-.73-3.11.49-2.91zm-5.85-.19s-.08 0-.09.06c-.16.91-.49 1.91-1.36 2v.05c.99.14 1.44-1.23 1.45-2.11z"/><path d="M541.85 145.65c-1.42-.41-2.13 2.46-.81 2.83s1.96-2.48.81-2.83zm7.87.21a11.06 11.06 0 0 1-1-.63 2 2 0 0 1-.94-.84.64.64 0 0 1 .25-.72 1.59 1.59 0 0 1 1.57.16 2.25 2.25 0 0 1 1.08 1.23.67.67 0 0 1-.96.8zM541 144a9.71 9.71 0 0 0 1.21-.06 2 2 0 0 0 1.23-.3.62.62 0 0 0 .11-.75 1.55 1.55 0 0 0-1.45-.6 2.32 2.32 0 0 0-1.53.57.67.67 0 0 0 .43 1.14zm5.66 12.16c-.26.16-.53.41-.86.37a2.43 2.43 0 0 1-.92-.43s-.06 0 0 0a1.23 1.23 0 0 0 1 .72 1 1 0 0 0 .87-.64.05.05 0 0 0-.09-.02zm-.39-2.88a3.1 3.1 0 0 1-2.32.94 3.78 3.78 0 0 1-1.1-.18 1.29 1.29 0 0 1-.21-.06l-.19-.08a.22.22 0 0 1-.14-.23h0a.29.29 0 0 1 0-.09h0v-.07l.41-1.73c-.28.07-1.68.38-1.59 0a47.53 47.53 0 0 1 3.09-9 .09.09 0 0 1 .16.06c-.65 2.86-1.8 5.59-2.5 8.45a5.55 5.55 0 0 1 1.53-.14c.09.05-.58 2-.62 2.31h0a4.29 4.29 0 0 0 3.36-.33c.13.02.19.09.12.15z"/><path d="M543.33 153.78a3.7 3.7 0 0 0 1.21 1.42 1.72 1.72 0 0 0 1 .27c.75-.05.91-.7.89-1.29a4 4 0 0 0-.14-.92 4.81 4.81 0 0 1-2.96.52z"/></g><path d="M544.54 155.2a1.72 1.72 0 0 0 1 .27c.75-.05.91-.7.89-1.29a1.73 1.73 0 0 0-1.89 1.02z" fill="#ff98b9"/><path d="M541.14 137.79c.73-1 1.53-2.07 2.26-2.15s.84 1.67 2.37 2.1c2.07.57 3.49-1.15 6.47-.75 4.28.57 5.42 4.48 4.29 10.49-1 5.37 2.13 6.53 2.13 6.53s4.37-11.39 1.85-16-9.8-7.88-15.69-5.2c-2.15.99-3.68 4.98-3.68 4.98z" class="C"/><path d="M556.39,151.35s3.38-4,5.24-2.8-.94,7.29-3.31,7.94a2.34,2.34,0,0,1-3-1.52Z" class="E"/><path d="M560.78 150.27a0 0 0 0 1 0 .06 5.94 5.94 0 0 0-3.37 3.42 1.3 1.3 0 0 1 2-.18v.08a1.43 1.43 0 0 0-1.62.36 6.87 6.87 0 0 0-.87 1.21c-.09.14-.34 0-.27-.12h0c.07-2.1 1.92-4.82 4.13-4.83z" class="C"/><g class="B"><path d="M542,135.2c1.3-.06,8.2,1.49,11.06,3.44s7.52,7.51,7.76,7.8,3.89-10.87-5-14.76C546.2,127.44,542,135.2,542,135.2Z"/><use xlink:href="#C"/></g><use xlink:href="#C" opacity=".2"/><path d="M542.92 206.16h44.75v49.56h-44.75z" class="B"/><path d="M542.92 206.16h44.75v49.56h-44.75z" class="D"/><path d="M542.91 255.72H519.8v-49.56h23.11z" class="B"/><path d="M542.91 255.72H519.8v-49.56h23.11z" class="I"/><path d="M561.5 216.87h.94.71l.41-.83.57.83.77-1.7.73 1.7h2.1.96l.34-1.13.33 1.13h.62v-10.71h-8.48v10.71z" class="F"/><g class="B"><path d="M521.4 252.3q2.57-5.28 5.09-10.6l5-10.66 5-10.71q2.46-5.36 4.87-10.76-2.57 5.3-5.08 10.61l-5 10.66-5 10.71q-2.47 5.36-4.88 10.75z"/><path d="M521.4 209.57q2.42 5.4 4.87 10.76l5 10.71 5 10.66q2.52 5.33 5.08 10.6-2.4-5.38-4.87-10.76l-5-10.7-5-10.66q-2.48-5.32-5.08-10.61z"/></g><g class="E"><path d="M571.17 173.55c10.92 8.21 32.1 26.61 34 36.56 2.43 13.06-8.69 38.75-13.44 43.71-3.2 3.35-17.3-9-18.15-12s10.61-23.87 10.7-26.26-14.56-24.26-20.92-34c-8.06-12.25-1.43-14.97 7.81-8.01z"/><path d="M567.92 243.54c1-1.16.4-1.69-2.27-1.17s-12.76 4.83-14 1.18 13.12-9.53 17.62-10.05a72.84 72.84 0 0 1 12 .2c-2.55 1.71-8.37 6.43-13.35 9.84z"/><path d="M593,252.16c-4.52,7.54-17.63,12.29-27.41,12.47a4.83,4.83,0,0,1-3-.9c-4.38.16-5.77-1.86-5.77-1.86-4.13-1.11-5.26-3.37-5.26-3.37s-5.15.13-5.75-3c-.67-3.48,6.69-3,10.9-5.18,9.66-5.05,22-14.92,24.61-16.66Z"/></g><path d="M570.51 252.18a48.89 48.89 0 0 1-18.92 6.22.09.09 0 0 0 0 .17 37 37 0 0 0 19-6.26c.11-.09.06-.2-.08-.13zm3.89 5.38c-2.87 1.24-7.93 3.38-17.63 4.2v.06a33.23 33.23 0 0 0 17.69-4.12c.17-.09.13-.22-.06-.14zm2.04 2.94a52.38 52.38 0 0 1-13.87 3.2v.06c6.38-.15 8.67-.92 14-3.1.14-.08.06-.24-.13-.16z" class="C"/><path d="M571.79 197.83l20.72-9.53s-19.86-15.32-27-18.18c-8-3.22-7.9 1.58-4.75 9.15s11.03 18.56 11.03 18.56z" class="B"/><path d="M587.9 186c-.77.22-7.27 3.09-8.67 3.74l-8.54 4.07c-.06 0 0 .13 0 .1 1.51-.51 7.32-3.14 8.76-3.78l8.46-4c.09-.13.09-.19-.01-.13zm-14.48 11.06l-1.63.66-5-8.18-5.15-8.25a0 0 0 0 0-.07 0l2.64 4.84-.44-.54-1.55-1.94c0-.05-.13 0-.09.06a20.76 20.76 0 0 0 1.42 2.05l1.19 1.3 1.56 2.74c1.65 2.78 3.28 6 5.14 8.63 0 0 1.41-.8 2.08-1.28.07-.01 0-.15-.1-.09z" class="C"/><path d="M515.67 228.06l-34.08 2.81-11.44-46.61 34.08-2.81 11.44 46.61z" class="H"/><g fill="#a6a6a6"><path d="M496.08 184.93l-16.15 1.32-1.26-5.15 16.16-1.31 1.25 5.14z"/><path d="M491.16 180.09l-1.99.16-.58-2.37-4.84.39.58 2.38-1.98.16-1.06-4.32 8.84-.72 1.03 4.32z"/></g><path d="M465.16 205.45a3.71 3.71 0 0 0 2.88 3.38s-2.78 2.27-2 5.15c.4 1.48 3.12 2.14 3.12 2.14a4.42 4.42 0 0 0-1.29 4.43c.68 2 3.31 2.36 3.31 2.36s-1.21 2.8.14 4.62c2.74 3.69 20.47-.32 21.73-7.47.59-3.34-3.69-2.12-3.69-2.12s5.73-3.23 5-6.91-6.2-1.76-6.2-1.76 5.53-3.18 4.38-6.92-6.33-1-6.33-1 3.34-3.56 1.81-6.22c-2.53-4.39-10.14 3.55-14.24 3.51l-1.61-6.08s-7.35 9.67-7.01 12.89z" class="E"/><path d="M471.59 223a0 0 0 1 0 0 .09 31.48 31.48 0 0 0 18-5.22c.16-.12 0-.44-.16-.34a64.92 64.92 0 0 1-17.84 5.47zm-2.5-6.83c-.07 0 0 .13 0 .13a29.54 29.54 0 0 0 19.31-6.92c.18-.16.18-.5 0-.32-3.83 2.94-13.48 6.31-19.31 7.11zm17.42-15.33c-5.33 4.39-11.52 6.62-18.21 8-.09 0-.05.13 0 .14 3.46.21 7.63-1.11 10.79-2.42a18.2 18.2 0 0 0 7.55-5.54c.1-.09-.02-.27-.13-.18zm59.05-29.94a17.32 17.32 0 0 0 .83 2.94 17.55 17.55 0 0 0 1.28 2.74 8.34 8.34 0 0 0 1.83 2.27 2.79 2.79 0 0 0 1.19.57 2.74 2.74 0 0 0 1.27-.28 13.12 13.12 0 0 0 4.59-3.7l1-1.17c.36-.39.6-.83.89-1.25l.85-1.27.81-1.3a24 24 0 0 1-3 5.4 12.16 12.16 0 0 1-4.78 4.05 3.47 3.47 0 0 1-1.71.3 3.2 3.2 0 0 1-1.54-.76 7.71 7.71 0 0 1-1.89-2.57 14.64 14.64 0 0 1-1.62-5.97z" class="C"/><defs ><path id="B" d="M451.67 264.34c-3 2.53-.29 25.29 1.82 24.9s6.64-1.25 8.46-2.69 12.12-19.86 9.62-23.68-17.57-.48-19.9 1.47z"/><path id="C" d="M560.41 145.87s-4.56-9.28-7.61-11.79-10.48-5-15.6-3.88c-4 .91 4.07 7.39 4.07 7.39a2.6 2.6 0 0 1 1.77-1.5c2.48-.47 6.71 1.08 9 2.4 2.96 1.66 8.37 7.38 8.37 7.38z"/></defs></svg>